<?xml version="1.0" encoding="utf-8" ?>
<svg baseProfile="full" height="966.94mm" preserveAspectRatio="xMinYMin meet" version="1.1" viewBox="0 0 38.386 966.94" width="38.386mm" xmlns="http://www.w3.org/2000/svg" xmlns:ev="http://www.w3.org/2001/xml-events" xmlns:xlink="http://www.w3.org/1999/xlink"><defs /><path d="M20.0,943.14 20.012,945.33 20.047,956.94 20.118,390.0 20.172,592.98 20.593,112.25 21.017,59.11 21.334,383.72 21.857,54.1 22.204,30.11 22.357,31.03 23.531,904.26 24.951,57.58 25.546,64.95 26.121,91.31 26.393,809.22 26.415,195.92 26.505,226.28 26.593,58.8 26.598,32.22 26.604,35.97 26.607,27.16 26.878,37.78 27.449,956.23 27.756,53.16 27.764,39.69 27.815,67.34 27.862,69.07 27.864,36.58 27.88,73.57 27.895,53.9 27.899,326.99 27.908,20.0 27.918,98.23 27.924,58.32 27.933,44.3 27.941,63.26 27.948,79.79 28.048,182.74 28.141,107.08 28.144,96.34 28.175,93.54 28.209,147.78 28.239,53.32 28.324,82.34 28.386,40.9 28.386,45.3" fill="none" stroke="blue" /></svg>