<?xml version="1.0" encoding="utf-8" ?>
<svg baseProfile="full" height="100%" version="1.1" width="100%" xmlns="http://www.w3.org/2000/svg" xmlns:ev="http://www.w3.org/2001/xml-events" xmlns:xlink="http://www.w3.org/1999/xlink"><defs /><rect fill="dodgerblue" height="70" width="1692.69" x="30" y="30" /><rect fill="slateblue" height="70" width="4.08" x="30.0" y="30" /><rect fill="slateblue" height="70" width="0.84" x="152.58" y="30" /><rect fill="slateblue" height="70" width="1.21" x="275.93" y="30" /><rect fill="slateblue" height="70" width="0.6" x="321.43" y="30" /><rect fill="slateblue" height="70" width="0.8" x="336.76" y="30" /><rect fill="slateblue" height="70" width="1.39" x="356.04" y="30" /><rect fill="slateblue" height="70" width="1.42" x="436.23" y="30" /><rect fill="slateblue" height="70" width="1.79" x="444.04" y="30" /><rect fill="slateblue" height="70" width="2.05" x="495.47" y="30" /><rect fill="slateblue" height="70" width="0.48" x="512.08" y="30" /><rect fill="slateblue" height="70" width="0.81" x="538.68" y="30" /><rect fill="slateblue" height="70" width="3.41" x="555.83" y="30" /><rect fill="slateblue" height="70" width="1.24" x="582.43" y="30" /><rect fill="slateblue" height="70" width="1.19" x="586.24" y="30" /><rect fill="slateblue" height="70" width="1.12" x="596.05" y="30" /><rect fill="slateblue" height="70" width="1.38" x="599.57" y="30" /><rect fill="slateblue" height="70" width="1.59" x="608.81" y="30" /><rect fill="slateblue" height="70" width="0.98" x="611.33" y="30" /><rect fill="slateblue" height="70" width="1.4" x="627.2" y="30" /><rect fill="slateblue" height="70" width="0.64" x="642.23" y="30" /><rect fill="slateblue" height="70" width="1.01" x="645.45" y="30" /><rect fill="slateblue" height="70" width="1.47" x="688.29" y="30" /><rect fill="slateblue" height="70" width="1.21" x="710.85" y="30" /><rect fill="slateblue" height="70" width="0.77" x="734.71" y="30" /><rect fill="slateblue" height="70" width="1.52" x="751.16" y="30" /><rect fill="slateblue" height="70" width="2.03" x="763.24" y="30" /><rect fill="slateblue" height="70" width="1.27" x="826.12" y="30" /><rect fill="slateblue" height="70" width="1.28" x="853.91" y="30" /><rect fill="slateblue" height="70" width="1.11" x="886.01" y="30" /><rect fill="slateblue" height="70" width="0.78" x="1006.39" y="30" /><rect fill="slateblue" height="70" width="2.24" x="1012.27" y="30" /><rect fill="slateblue" height="70" width="0.79" x="1030.4" y="30" /><rect fill="slateblue" height="70" width="1.62" x="1032.65" y="30" /><rect fill="slateblue" height="70" width="0.56" x="1056.51" y="30" /><rect fill="slateblue" height="70" width="1.49" x="1066.17" y="30" /><rect fill="slateblue" height="70" width="1.37" x="1088.34" y="30" /><rect fill="slateblue" height="70" width="1.17" x="1106.73" y="30" /><rect fill="slateblue" height="70" width="1.23" x="1149.16" y="30" /><rect fill="slateblue" height="70" width="2.36" x="1159.7" y="30" /><rect fill="slateblue" height="70" width="1.43" x="1172.7" y="30" /><rect fill="slateblue" height="70" width="2.08" x="1280.51" y="30" /><rect fill="slateblue" height="70" width="1.42" x="1323.26" y="30" /><rect fill="slateblue" height="70" width="1.8" x="1348.15" y="30" /><rect fill="slateblue" height="70" width="1.77" x="1351.26" y="30" /><rect fill="slateblue" height="70" width="0.77" x="1356.0" y="30" /><rect fill="slateblue" height="70" width="1.39" x="1370.92" y="30" /><rect fill="slateblue" height="70" width="1.23" x="1381.46" y="30" /><rect fill="slateblue" height="70" width="2.14" x="1402.48" y="30" /><rect fill="slateblue" height="70" width="1.46" x="1408.83" y="30" /><rect fill="slateblue" height="70" width="1.78" x="1422.77" y="30" /><rect fill="slateblue" height="70" width="1.02" x="1434.29" y="30" /><rect fill="slateblue" height="70" width="1.88" x="1460.84" y="30" /><rect fill="slateblue" height="70" width="1.27" x="1485.01" y="30" /><rect fill="slateblue" height="70" width="1.01" x="1507.06" y="30" /><rect fill="slateblue" height="70" width="1.55" x="1517.25" y="30" /><rect fill="slateblue" height="70" width="1.4" x="1523.11" y="30" /><rect fill="slateblue" height="70" width="0.83" x="1539.8" y="30" /><rect fill="slateblue" height="70" width="1.31" x="1569.34" y="30" /><rect fill="slateblue" height="70" width="1.3" x="1571.99" y="30" /><rect fill="slateblue" height="70" width="1.56" x="1582.06" y="30" /><rect fill="slateblue" height="70" width="1.91" x="1614.82" y="30" /><rect fill="slateblue" height="70" width="1.15" x="1636.03" y="30" /><rect fill="slateblue" height="70" width="2.14" x="1638.84" y="30" /><rect fill="slateblue" height="70" width="1.06" x="1644.68" y="30" /><rect fill="slateblue" height="70" width="1.63" x="1667.66" y="30" /><rect fill="slateblue" height="70" width="1.61" x="1671.37" y="30" /><rect fill="slateblue" height="70" width="41.04" x="1681.65" y="30" /><text fill="black" x="40" y="20">Huntington</text><text fill="grey" x="150" y="20">Chr 4: 3076407-3245676</text><text fill="dodgerblue" x="40" y="130">Intron</text><text fill="slateblue" x="40" y="150">Exon</text></svg>