<?xml version="1.0" encoding="utf-8" ?>
<svg baseProfile="full" height="984.15mm" preserveAspectRatio="xMinYMin meet" version="1.1" viewBox="0 0 1890.412 984.15" width="1890.412mm" xmlns="http://www.w3.org/2000/svg" xmlns:ev="http://www.w3.org/2001/xml-events" xmlns:xlink="http://www.w3.org/1999/xlink"><defs /><path d="M20.0,243.21 20.068,369.39 20.102,261.77 20.108,595.67 20.12,508.08 20.21,261.88 20.371,565.36 20.547,251.95 20.645,554.31 20.67,215.82 20.725,180.85 21.755,304.47 24.006,368.99 25.315,81.99 25.386,546.11 25.405,469.9 25.414,374.14 25.425,503.51 25.43,471.0 25.434,78.99 25.525,118.29 26.524,161.43 28.194,376.24 29.858,426.49 30.785,244.44 30.807,150.07 30.809,165.62 30.815,156.71 30.823,265.8 30.829,357.04 30.845,341.73 30.97,313.39 31.104,293.76 31.159,93.3 31.203,255.7 31.262,305.44 31.321,440.66 113.776,386.18 196.275,101.68 196.333,311.67 196.349,255.38 196.368,225.72 196.378,478.69 196.384,361.64 196.388,324.14 196.495,402.26 210.766,671.53 224.949,485.53 224.968,94.8 224.974,215.15 224.977,269.47 224.989,107.23 226.28,377.58 227.606,105.01 227.655,120.02 227.669,179.15 227.728,200.79 227.779,52.12 227.786,426.03 227.793,436.21 227.812,219.95 228.076,159.66 228.388,249.67 228.467,382.09 228.506,169.86 228.623,116.72 228.951,533.13 229.201,209.29 229.249,257.63 229.294,242.48 229.31,313.13 229.328,378.63 229.345,408.43 229.389,554.5 229.571,332.58 229.727,497.81 229.743,461.22 229.769,532.76 229.827,349.05 230.187,181.75 230.574,328.52 230.647,553.12 230.658,452.72 230.672,472.62 230.687,432.03 231.093,153.57 231.976,723.75 232.523,188.3 232.591,130.72 232.605,460.87 232.615,429.56 232.623,434.58 232.633,396.98 232.72,204.42 232.946,196.82 233.163,393.19 233.264,99.6 233.312,99.49 234.455,401.29 235.652,582.74 235.788,408.21 235.859,249.46 236.253,364.32 236.77,270.66 236.913,490.5 239.086,277.54 241.292,220.53 241.345,324.81 241.351,509.09 241.398,113.53 242.454,211.89 243.468,507.3 243.481,413.75 243.492,666.15 243.497,493.5 243.503,534.68 243.506,415.27 243.509,436.22 243.51,548.17 243.533,416.4 243.563,159.43 243.57,112.7 243.599,97.74 244.253,137.54 244.95,176.16 245.031,192.72 245.044,195.99 245.048,36.47 245.068,158.33 245.127,283.5 245.474,376.52 245.812,84.87 245.843,890.69 245.852,961.24 245.912,866.33 246.734,137.51 247.542,158.3 247.602,203.85 247.649,120.99 247.676,372.58 247.691,227.33 247.71,523.17 247.859,216.72 248.004,87.71 248.011,99.45 248.043,45.11 248.101,98.83 248.21,256.5 248.339,169.67 248.406,182.09 248.425,38.21 248.429,68.04 248.47,73.98 248.565,277.07 248.635,381.92 248.663,73.95 248.686,64.05 248.695,59.22 248.712,414.83 249.487,86.7 252.569,252.93 255.069,120.72 255.256,92.43 255.263,178.14 255.271,128.71 255.278,946.12 255.279,955.45 255.285,766.9 255.29,964.14 255.296,869.7 255.303,906.22 255.319,916.35 256.738,329.4 258.147,115.76 258.152,121.24 258.157,141.54 258.166,381.49 258.174,721.73 258.185,824.35 258.212,130.27 260.868,122.11 263.522,318.23 263.584,215.48 263.633,912.93 263.634,958.63 263.637,914.54 263.639,912.19 263.641,920.04 263.643,828.21 263.646,961.62 263.651,947.13 263.657,919.16 263.662,865.31 263.666,913.06 263.667,926.23 267.625,860.03 282.117,299.94 292.686,89.77 292.807,122.93 292.894,153.38 295.229,94.64 297.614,173.34 297.675,909.76 297.684,919.34 297.69,917.47 297.711,967.09 297.727,906.29 297.737,883.87 297.748,964.1 297.76,903.25 297.827,917.84 314.329,127.39 330.827,142.99 330.895,120.86 330.934,122.37 330.958,892.83 330.978,904.15 331.003,957.19 331.01,894.86 331.055,913.88 331.136,586.11 334.818,120.83 343.211,152.06 347.971,113.87 347.99,87.95 347.998,102.0 351.062,177.32 354.128,94.99 354.158,804.1 362.797,727.9 371.422,311.51 371.439,532.38 371.453,579.29 372.675,115.01 373.919,726.52 373.95,157.29 373.957,97.18 373.965,110.77 386.978,171.97 409.98,842.71 420.017,429.92 420.079,739.59 420.099,867.13 420.103,831.19 420.108,957.53 420.114,953.47 420.115,918.03 420.118,949.92 420.12,922.65 420.128,855.32 420.139,849.47 420.154,957.13 420.204,871.43 420.3,110.05 421.56,246.38 423.461,448.97 424.519,125.1 424.953,716.55 425.039,729.88 425.055,901.13 425.063,901.06 425.071,938.77 425.087,901.86 425.111,967.31 425.128,970.89 425.131,969.42 425.137,955.82 425.143,783.46 425.143,573.06 425.146,425.93 425.188,735.71 425.252,70.28 426.828,143.59 431.213,924.67 434.675,66.07 435.349,229.56 435.402,921.92 435.42,910.27 435.433,904.67 435.447,957.7 435.454,950.11 435.455,947.6 435.458,900.65 435.465,892.65 435.488,936.69 435.563,163.98 436.53,88.84 438.102,195.46 438.769,217.7 447.671,97.8 456.628,202.39 456.698,115.49 456.708,633.12 456.713,910.15 456.718,925.42 456.725,732.15 456.742,949.33 456.758,951.91 457.3,607.44 463.534,141.51 484.205,877.75 500.857,858.19 538.131,931.51 579.169,925.25 584.624,322.04 589.431,665.52 594.268,544.33 594.318,153.01 594.332,325.08 594.344,742.81 594.355,738.9 594.359,778.44 594.368,760.68 594.375,701.96 594.379,944.31 594.389,951.57 594.397,951.51 594.4,958.53 594.438,869.01 594.494,235.91 628.863,160.05 709.11,652.88 781.901,102.52 810.651,905.14 812.523,196.84 812.552,489.1 812.573,300.13 812.58,136.16 812.615,353.5 814.331,103.94 819.206,90.51 822.469,141.19 822.554,374.49 822.575,897.03 822.581,915.67 822.582,961.84 822.585,961.27 822.591,960.22 822.6,917.57 822.698,794.44 822.972,366.5 823.161,141.3 823.395,327.48 823.639,109.49 824.164,211.89 824.74,83.9 824.83,174.82 824.853,961.76 824.854,907.64 824.861,953.19 824.868,892.74 824.874,918.47 824.97,919.95 825.688,88.86 826.342,231.53 826.381,93.6 826.405,183.53 826.424,777.78 826.432,906.73 826.433,781.93 826.433,970.23 826.441,964.49 826.449,935.88 826.453,926.89 826.461,892.56 826.468,850.3 826.473,893.87 826.483,967.43 826.498,914.52 826.576,898.63 828.428,81.57 830.458,122.77 830.81,122.53 831.001,87.76 831.134,569.95 831.19,925.84 831.204,925.76 831.209,790.13 831.21,901.24 831.217,855.74 831.228,866.24 831.241,911.17 831.25,866.61 831.255,655.51 831.261,892.36 831.267,931.37 831.274,916.02 831.28,926.16 831.292,896.03 831.3,870.68 831.364,861.71 831.66,83.46 834.579,107.87 837.913,433.7 839.647,125.77 842.165,918.3 844.038,155.17 844.479,125.8 844.481,90.51 844.483,96.81 848.622,103.09 852.813,152.74 852.867,83.06 852.883,124.86 852.925,137.93 852.975,893.03 852.999,969.49 853.008,758.74 853.016,937.07 853.021,963.36 853.026,965.45 853.031,878.47 853.034,952.3 853.04,919.55 853.104,785.87 860.484,83.42 870.195,127.79 872.793,123.7 873.024,254.33 873.067,133.97 873.093,521.82 873.108,793.67 873.124,941.15 873.137,856.72 873.149,856.08 879.732,357.36 886.405,178.22 886.554,306.09 886.615,171.6 886.641,650.45 886.674,872.9 886.7,880.42 886.729,960.95 886.747,916.77 886.767,857.72 886.789,925.05 886.796,936.82 886.806,901.55 886.819,950.14 889.72,811.2 892.633,471.19 892.664,341.77 892.689,72.97 892.713,74.93 892.731,71.42 892.747,139.58 892.753,290.84 892.777,310.0 892.813,884.63 892.826,899.44 892.83,899.38 892.833,923.53 892.834,895.07 892.841,909.11 892.847,764.45 892.852,915.02 892.862,941.0 892.87,725.62 897.226,310.77 901.615,126.1 901.658,388.04 901.666,93.14 912.05,498.27 926.475,908.81 930.675,109.81 937.953,464.09 945.094,495.98 945.279,119.81 945.447,376.04 952.221,317.97 965.187,915.0 971.39,134.97 971.425,96.51 978.361,166.71 986.683,807.2 988.334,696.09 988.65,82.49 988.729,794.29 988.738,898.9 988.747,961.13 988.75,881.28 988.843,893.35 989.965,139.24 992.478,212.2 994.0,122.14 994.071,178.71 994.109,878.46 994.116,921.14 994.119,927.65 994.124,916.14 994.127,927.46 994.128,888.02 994.129,897.22 994.132,899.81 994.144,917.87 994.157,342.09 994.167,299.78 994.224,293.8 994.418,88.63 994.58,59.91 994.608,572.0 994.62,896.83 994.715,876.13 995.06,136.95 995.348,99.03 995.406,401.37 995.434,871.72 995.44,918.59 995.445,839.83 995.45,952.41 995.461,845.88 995.472,359.56 995.473,105.18 995.489,100.22 995.514,88.01 995.601,145.32 995.684,359.3 995.695,801.1 995.7,935.78 995.705,919.0 995.712,958.06 995.715,908.06 995.72,965.29 995.728,921.9 995.74,874.72 996.854,840.91 998.001,72.92 998.083,104.47 998.138,946.4 998.152,953.69 998.158,785.19 998.162,961.46 998.167,896.52 998.171,903.57 998.173,897.74 998.254,898.98 998.383,431.62 998.436,357.16 998.458,432.48 998.489,137.73 998.505,388.19 998.574,122.37 1000.198,95.92 1002.49,779.86 1003.684,412.65 1004.144,234.11 1004.145,176.06 1006.688,446.18 1009.306,148.36 1009.394,489.54 1009.405,838.69 1009.407,965.8 1009.412,950.91 1009.416,950.06 1009.417,940.34 1009.417,959.59 1009.423,963.23 1009.437,964.71 1009.446,948.72 1009.446,952.3 1009.446,964.87 1009.447,927.83 1009.451,961.34 1009.535,882.93 1009.643,771.88 1009.681,648.54 1009.704,147.38 1010.62,359.21 1013.266,147.32 1023.418,872.73 1031.856,98.09 1036.637,658.91 1041.39,417.91 1041.399,293.32 1041.417,206.36 1041.439,656.86 1041.45,857.62 1041.459,825.14 1041.471,901.02 1041.476,921.95 1041.482,890.13 1041.49,798.99 1041.498,900.39 1041.582,541.12 1047.223,99.54 1052.792,100.22 1052.805,80.74 1052.813,782.51 1052.843,761.8 1054.056,131.82 1055.254,96.01 1055.274,104.32 1055.287,758.47 1056.928,729.91 1058.583,113.98 1058.613,176.1 1058.626,151.77 1058.636,147.98 1058.648,135.47 1058.656,239.95 1058.803,693.19 1058.955,120.35 1058.993,148.68 1059.729,137.71 1060.457,121.99 1060.486,106.84 1060.522,164.52 1060.949,94.97 1061.354,480.31 1061.365,111.15 1061.378,86.23 1061.398,187.41 1061.654,231.32 1061.907,140.21 1061.935,97.69 1062.51,259.34 1063.069,100.32 1063.083,566.91 1063.09,165.05 1063.65,188.05 1064.215,159.42 1064.23,145.43 1064.256,128.21 1064.276,426.29 1064.286,284.93 1065.027,239.3 1065.766,182.26 1065.795,128.87 1065.82,135.35 1065.896,108.96 1065.986,639.97 1066.211,145.86 1066.454,91.96 1066.501,163.26 1067.5,104.31 1068.493,117.75 1068.671,297.99 1068.953,97.83 1069.066,95.33 1069.073,185.78 1069.101,90.16 1069.227,272.37 1069.332,143.49 1069.452,390.08 1069.578,84.27 1069.608,215.32 1069.638,77.35 1069.647,348.08 1070.604,376.83 1071.573,123.47 1072.062,100.51 1073.297,79.12 1074.075,107.87 1074.094,76.42 1074.095,86.33 1074.099,81.99 1074.254,101.38 1074.408,106.81 1074.411,111.25 1074.449,275.43 1074.489,199.1 1074.5,109.0 1074.508,199.05 1074.834,122.24 1075.211,307.27 1075.277,241.31 1075.384,382.92 1075.858,105.59 1076.398,121.13 1076.575,102.24 1076.596,183.79 1076.61,84.97 1078.557,124.5 1081.159,117.26 1082.061,162.52 1082.294,78.13 1082.297,70.36 1082.306,154.43 1083.72,201.8 1085.129,107.43 1085.135,85.73 1085.55,109.4 1085.963,134.42 1085.97,334.24 1087.248,635.42 1088.532,461.32 1088.544,250.63 1088.552,107.62 1088.562,154.44 1088.591,107.22 1088.621,94.85 1092.507,163.71 1096.389,69.69 1096.432,85.37 1098.441,123.45 1103.687,102.9 1107.01,118.39 1107.062,91.07 1107.067,363.26 1107.071,129.89 1107.076,77.96 1107.087,26.57 1107.16,79.4 1109.361,118.42 1111.582,145.33 1111.671,963.94 1111.682,939.92 1111.687,910.22 1111.775,939.14 1115.722,480.09 1120.897,732.8 1122.245,730.54 1122.316,155.9 1122.358,810.67 1122.364,923.01 1122.375,883.57 1122.386,960.91 1122.398,947.64 1122.411,915.82 1122.422,882.48 1122.433,967.26 1122.442,973.94 1122.452,884.52 1122.459,926.59 1122.464,755.94 1122.469,858.37 1122.556,919.93 1124.991,83.02 1127.372,91.66 1127.415,182.26 1127.438,792.46 1127.448,931.33 1127.449,960.98 1127.45,960.91 1127.453,960.33 1127.456,920.91 1127.458,958.83 1127.459,958.82 1127.464,961.11 1127.481,949.01 1127.552,920.58 1127.827,525.61 1129.474,101.18 1130.947,301.54 1131.017,650.66 1131.053,919.29 1131.067,882.28 1131.074,972.18 1131.09,972.73 1131.105,882.99 1131.108,918.04 1131.112,920.14 1131.12,912.53 1131.211,536.56 1134.64,84.27 1138.04,532.66 1138.098,867.55 1138.102,893.56 1138.111,888.53 1138.117,845.04 1138.125,939.37 1138.133,897.2 1138.144,928.87 1138.162,806.97 1138.177,915.28 1138.205,882.79 1138.241,807.73 1138.258,463.86 1138.312,838.85 1139.712,220.41 1142.749,175.25 1146.456,103.02 1148.473,121.71 1148.476,102.71 1148.483,113.55 1149.837,107.31 1154.548,110.47 1158.101,158.76 1158.345,237.64 1158.405,895.74 1158.411,958.54 1158.415,896.94 1158.423,963.54 1158.43,964.34 1158.434,964.47 1158.436,961.19 1158.437,891.5 1158.44,918.48 1158.446,901.11 1158.451,831.5 1158.532,771.01 1158.809,110.33 1159.04,151.09 1159.08,147.92 1159.229,175.91 1159.394,84.5 1159.444,265.63 1159.482,100.78 1159.498,386.32 1159.511,45.83 1159.531,121.29 1159.807,291.0 1160.143,88.58 1161.121,167.82 1162.247,70.09 1162.848,706.71 1163.284,872.49 1163.343,341.89 1163.356,113.34 1163.379,101.18 1163.686,153.86 1164.042,127.57 1164.11,881.94 1164.114,956.75 1164.119,952.32 1164.124,865.65 1164.13,957.25 1164.138,879.15 1164.145,752.22 1164.172,819.16 1164.231,58.61 1164.602,103.26 1164.994,127.71 1165.053,861.3 1165.064,959.48 1165.079,894.25 1165.088,888.24 1165.094,957.87 1165.115,957.51 1165.133,833.05 1165.147,896.63 1165.244,720.62 1167.283,152.41 1171.03,556.47 1172.881,488.61 1172.944,500.6 1172.951,929.87 1172.958,879.87 1172.965,887.34 1172.972,906.54 1173.045,924.22 1173.187,697.75 1173.275,115.18 1173.488,359.2 1173.691,206.62 1173.711,380.39 1173.74,210.17 1173.756,183.51 1173.76,194.39 1173.762,74.1 1173.771,137.67 1173.782,121.26 1174.349,360.72 1174.949,122.97 1175.038,182.3 1175.094,970.37 1175.096,928.25 1175.098,895.4 1175.098,897.21 1175.099,903.37 1175.102,900.87 1175.105,873.93 1175.116,963.79 1175.13,920.75 1175.144,921.24 1175.686,706.22 1176.475,113.98 1178.703,121.41 1180.75,147.21 1180.842,806.29 1180.868,905.33 1180.877,963.13 1180.877,953.9 1180.877,939.69 1180.877,952.92 1180.881,956.06 1180.886,863.23 1180.895,916.87 1180.917,932.64 1180.999,189.74 1181.132,125.81 1181.374,92.06 1181.692,341.8 1182.338,914.01 1182.934,85.87 1183.027,949.14 1183.029,916.84 1183.033,882.6 1183.04,963.48 1183.054,895.23 1183.066,932.35 1183.072,882.9 1183.077,769.24 1183.078,965.55 1183.081,960.66 1183.087,913.45 1183.101,922.52 1183.125,916.61 1183.154,174.12 1183.659,392.69 1184.169,106.48 1184.408,108.06 1184.891,676.97 1185.158,122.55 1185.164,276.97 1185.188,367.16 1189.214,73.5 1193.3,546.21 1193.385,163.43 1193.392,288.75 1193.396,311.61 1193.399,130.54 1193.406,173.56 1193.413,396.14 1193.511,87.68 1194.448,205.7 1195.377,106.19 1195.468,834.05 1195.476,943.86 1195.49,887.85 1195.502,874.65 1195.523,799.76 1195.542,866.72 1195.563,721.96 1195.598,271.7 1195.62,908.54 1195.631,935.44 1195.64,830.65 1195.659,883.15 1195.68,823.36 1195.69,583.6 1195.7,865.74 1195.708,735.02 1195.714,701.3 1195.73,875.47 1195.747,851.04 1195.757,795.51 1195.766,901.69 1195.768,856.15 1195.77,954.33 1195.772,945.16 1195.773,842.44 1195.773,854.65 1195.773,961.93 1195.781,950.0 1195.796,846.59 1195.815,884.89 1195.827,941.45 1195.846,813.64 1195.866,868.26 1195.882,846.59 1195.895,894.97 1195.908,825.83 1195.93,774.33 1195.945,847.7 1195.968,856.2 1196.035,389.99 1196.11,338.28 1196.141,746.22 1196.147,903.57 1196.154,794.55 1196.174,691.35 1196.19,400.64 1196.248,519.14 1197.072,582.68 1197.882,107.36 1197.947,235.44 1197.969,877.32 1197.972,958.41 1197.976,870.77 1197.978,944.24 1197.98,832.78 1197.98,946.08 1197.984,952.56 1197.988,960.68 1197.991,955.28 1198.003,875.32 1198.023,909.79 1198.038,900.49 1198.042,898.08 1198.054,791.48 1198.068,630.99 1198.075,642.57 1198.079,596.46 1198.084,849.32 1198.175,89.06 1199.107,133.29 1199.959,870.65 1200.979,937.04 1202.421,942.73 1202.916,102.65 1202.989,123.45 1203.005,104.56 1203.025,98.21 1204.449,189.11 1205.902,183.79 1205.947,796.88 1205.951,282.14 1205.957,650.23 1205.961,942.11 1205.962,921.87 1205.966,962.67 1205.969,901.39 1205.978,926.99 1205.992,948.43 1206.0,851.93 1206.005,907.15 1206.009,930.3 1206.016,930.01 1206.817,912.27 1207.639,124.69 1207.718,74.62 1207.768,899.21 1207.773,935.61 1207.78,898.17 1207.784,909.4 1207.789,919.01 1207.793,953.38 1207.8,928.78 1207.808,916.96 1207.812,911.31 1207.816,926.03 1207.876,948.73 1209.315,767.93 1210.696,957.26 1210.702,920.75 1210.709,942.69 1210.725,882.51 1210.739,915.24 1210.748,914.63 1210.813,885.47 1211.563,380.65 1212.95,321.61 1213.645,891.79 1214.087,917.31 1214.548,364.74 1214.579,893.65 1214.597,866.52 1214.608,970.2 1214.614,961.04 1214.614,888.93 1214.62,918.28 1214.629,712.07 1214.648,909.68 1214.665,888.24 1214.676,926.71 1214.689,903.71 1214.774,904.7 1215.6,291.62 1216.65,184.41 1217.33,74.01 1217.981,72.42 1218.338,129.85 1218.418,914.76 1218.431,901.18 1218.455,912.27 1218.47,893.56 1218.474,930.61 1218.475,908.37 1218.483,840.56 1218.492,930.01 1218.495,957.29 1218.501,900.87 1218.572,904.43 1218.775,347.44 1218.962,76.58 1219.026,206.02 1219.041,886.74 1219.048,827.48 1219.052,941.68 1219.055,925.48 1219.057,873.11 1219.057,890.85 1219.058,912.41 1219.06,937.0 1219.063,949.6 1219.065,954.25 1219.07,958.02 1219.075,904.22 1219.077,878.8 1219.891,882.2 1221.016,83.83 1221.399,91.76 1221.512,120.83 1221.564,708.13 1221.578,850.83 1221.584,965.06 1221.587,960.55 1221.59,912.21 1221.591,887.56 1221.593,971.33 1221.605,953.85 1221.616,885.95 1221.618,924.06 1221.619,966.56 1221.621,866.38 1221.622,927.11 1221.627,963.55 1221.631,956.73 1221.633,915.56 1221.636,904.5 1221.639,969.19 1221.644,889.82 1221.652,898.44 1221.657,914.04 1221.671,876.31 1221.738,902.91 1222.136,273.83 1223.102,163.5 1223.798,248.56 1223.882,847.22 1223.899,934.89 1223.912,954.56 1223.919,953.22 1223.919,925.76 1223.921,904.42 1223.923,972.37 1223.924,914.39 1223.925,898.72 1223.946,879.39 1224.033,107.89 1224.438,100.06 1225.615,767.96 1226.488,78.82 1226.538,368.28 1226.557,910.64 1226.562,865.44 1226.568,916.84 1226.571,886.57 1226.572,933.91 1226.574,957.96 1226.575,941.26 1226.578,953.5 1226.583,888.6 1226.588,794.83 1226.591,930.39 1226.591,959.07 1226.597,958.91 1226.605,810.89 1226.61,950.06 1226.619,948.13 1226.636,969.43 1226.646,932.44 1226.674,888.93 1226.703,231.75 1229.625,135.84 1233.877,265.89 1235.582,917.55 1236.161,123.27 1237.653,84.73 1239.543,87.65 1240.187,77.36 1240.24,840.36 1240.253,963.43 1240.258,904.72 1240.262,894.85 1240.266,924.17 1240.27,813.94 1240.276,876.73 1240.283,872.07 1240.36,812.54 1241.084,99.73 1241.813,920.75 1241.892,758.98 1244.929,695.1 1248.023,80.4 1248.082,95.71 1248.102,84.92 1248.124,733.86 1248.134,930.11 1248.142,927.08 1248.146,959.45 1248.152,953.71 1248.158,964.89 1248.161,955.0 1248.176,917.42 1248.231,949.62 1248.783,211.78 1249.411,84.93 1250.567,718.32 1252.525,100.72 1253.467,273.33 1253.498,225.34 1253.518,154.19 1253.568,101.98 1253.732,76.8 1254.13,158.94 1254.486,123.14 1254.573,865.78 1254.581,845.43 1254.6,970.25 1255.209,372.1 1259.205,832.24 1262.62,71.92 1262.649,89.42 1262.667,648.28 1262.676,750.08 1262.743,714.15 1262.908,94.67 1263.016,84.67 1263.074,97.51 1263.163,190.59 1263.206,176.9 1263.214,265.14 1263.223,112.08 1263.234,905.93 1263.239,871.04 1263.241,964.01 1263.241,894.15 1263.242,915.36 1263.246,859.78 1263.25,964.19 1263.253,963.7 1263.27,807.19 1263.339,339.48 1263.526,141.03 1263.739,786.31 1265.345,104.14 1266.915,86.28 1267.104,76.71 1267.267,109.09 1267.284,91.45 1267.292,255.67 1267.328,71.54 1267.383,68.16 1267.431,95.32 1267.455,736.47 1267.458,737.4 1267.461,854.59 1267.462,701.85 1267.463,773.09 1267.465,810.55 1267.467,637.19 1267.468,630.62 1267.474,674.37 1267.517,103.25 1267.585,76.26 1268.83,74.15 1270.051,739.4 1270.069,145.34 1270.077,156.0 1270.083,131.68 1270.119,204.95 1270.246,103.38 1270.378,270.52 1270.604,370.06 1270.802,570.12 1270.82,879.17 1270.849,822.76 1270.87,446.14 1272.938,89.06 1275.062,157.49 1275.158,158.41 1275.196,960.47 1275.208,912.01 1275.228,866.35 1275.24,947.02 1275.244,952.53 1275.248,900.07 1275.252,938.38 1275.312,945.4 1276.579,149.2 1277.844,708.59 1277.901,88.78 1277.915,196.8 1277.932,208.16 1277.938,334.87 1277.941,432.3 1277.941,523.96 1277.942,529.87 1277.943,662.0 1277.944,548.31 1277.956,658.3 1277.969,882.38 1277.974,831.11 1277.98,889.74 1277.99,791.58 1278.008,716.19 1278.02,813.96 1278.106,947.59 1278.595,163.34 1279.665,707.37 1280.466,153.85 1280.619,102.94 1280.645,91.67 1280.658,94.56 1280.662,90.65 1280.703,78.28 1282.328,100.03 1283.989,79.45 1284.066,84.9 1284.067,75.63 1284.075,86.69 1284.09,125.54 1284.106,37.22 1284.189,92.47 1284.269,764.9 1284.912,754.49 1285.876,85.42 1287.441,185.53 1288.73,316.87 1288.784,891.47 1288.8,860.8 1288.82,639.92 1288.826,820.49 1288.832,836.23 1288.843,793.94 1288.875,855.29 1288.905,890.26 1288.911,892.01 1288.912,969.51 1288.913,941.76 1288.928,957.48 1288.944,887.39 1288.956,963.61 1288.967,830.09 1288.971,957.18 1288.99,908.53 1289.017,279.03 1289.034,834.7 1289.046,867.87 1289.099,688.24 1292.396,72.83 1295.705,150.96 1295.792,173.1 1295.821,635.25 1295.824,513.34 1295.832,718.73 1295.904,270.91 1296.176,70.08 1296.424,90.42 1296.475,298.93 1296.66,184.19 1296.839,836.21 1296.855,875.69 1296.901,503.06 1296.935,153.33 1296.935,173.31 1296.945,106.28 1296.956,207.58 1296.958,111.32 1298.375,131.64 1302.265,878.54 1304.74,109.43 1307.628,152.79 1318.72,63.02 1327.153,85.49 1328.923,943.79 1330.485,127.25 1330.507,586.24 1330.51,128.28 1330.518,133.6 1334.577,82.32 1338.705,738.89 1338.793,416.38 1338.815,91.77 1338.829,48.18 1338.834,47.83 1338.843,112.93 1338.944,120.96 1342.635,77.97 1346.786,240.8 1347.378,244.91 1347.451,145.77 1347.487,867.32 1347.492,959.35 1347.493,961.13 1347.495,958.81 1347.499,910.09 1347.507,901.01 1347.514,944.15 1347.517,942.87 1347.52,778.49 1347.608,918.22 1347.7,161.68 1347.72,189.71 1347.736,69.85 1347.755,652.26 1347.84,66.96 1347.935,186.47 1347.97,900.11 1347.979,969.33 1347.982,958.55 1347.99,875.32 1347.998,957.73 1348.036,880.98 1348.1,747.41 1348.284,332.78 1348.447,306.49 1349.635,183.48 1350.85,709.26 1350.887,420.35 1350.938,186.62 1350.987,962.08 1350.996,949.0 1351.051,898.94 1351.142,455.82 1351.186,491.75 1351.194,636.69 1351.211,903.02 1351.221,918.87 1351.225,960.41 1351.234,886.79 1351.257,948.58 1351.279,916.2 1351.341,862.64 1351.601,309.84 1352.012,77.7 1352.245,94.99 1352.282,860.19 1352.295,877.27 1352.298,925.67 1352.318,831.33 1352.342,831.04 1352.402,799.17 1352.541,564.5 1352.646,109.02 1352.665,116.04 1352.681,121.77 1352.702,718.07 1352.945,789.99 1353.998,104.55 1355.711,102.89 1356.651,144.58 1356.717,460.47 1356.742,29.17 1356.746,126.17 1356.776,91.05 1356.833,617.29 1357.964,151.49 1359.112,90.34 1359.2,139.74 1359.246,72.22 1359.254,425.92 1359.261,423.8 1359.274,41.81 1359.336,63.11 1359.918,877.83 1360.46,863.61 1360.473,899.38 1360.474,920.42 1360.476,961.06 1360.482,896.92 1360.485,941.82 1360.485,951.21 1360.485,952.73 1360.487,883.45 1360.491,966.2 1360.497,969.62 1360.501,942.28 1360.575,960.64 1362.124,181.88 1363.639,319.02 1363.691,672.89 1363.708,108.23 1363.717,70.97 1363.728,76.34 1363.736,812.55 1363.739,930.04 1363.749,945.27 1363.763,919.96 1363.78,849.17 1363.859,529.62 1364.622,416.77 1365.626,122.53 1365.958,857.45 1365.985,875.09 1366.755,905.27 1367.537,138.68 1367.623,643.96 1367.698,165.88 1367.763,88.18 1367.826,88.1 1367.839,64.69 1367.923,98.2 1368.226,192.82 1368.465,698.31 1368.48,126.34 1368.484,91.88 1368.489,94.84 1368.498,124.86 1368.517,93.36 1368.535,135.4 1370.072,166.57 1371.611,716.59 1371.614,801.38 1371.616,855.55 1371.62,746.77 1371.626,754.25 1371.629,363.25 1372.463,630.57 1373.299,96.21 1373.304,194.06 1373.309,75.15 1373.315,73.26 1373.322,109.38 1373.342,100.02 1376.161,120.76 1379.008,143.2 1379.063,233.54 1379.083,369.3 1379.106,718.99 1379.128,778.58 1379.151,911.04 1379.185,563.01 1379.211,530.24 1379.233,461.17 1379.256,329.99 1379.276,457.23 1379.292,529.98 1379.311,478.93 1379.328,511.01 1379.329,561.57 1379.345,549.64 1379.36,560.92 1379.364,419.87 1379.376,432.88 1379.386,637.12 1379.389,666.5 1379.391,832.5 1379.393,866.91 1379.395,953.14 1379.397,907.18 1379.4,951.82 1379.406,920.56 1379.409,957.69 1379.412,908.72 1379.429,892.11 1379.445,897.19 1379.448,973.61 1379.454,919.03 1379.462,969.06 1379.468,951.61 1379.47,841.39 1379.49,795.26 1379.517,600.72 1379.529,520.96 1379.534,542.97 1379.547,446.38 1379.57,556.54 1379.582,312.5 1379.596,601.87 1379.613,273.58 1379.619,412.09 1379.631,223.71 1379.668,219.04 1379.699,577.95 1379.707,629.11 1379.718,540.95 1379.725,491.17 1379.726,546.17 1379.73,524.0 1379.737,723.25 1379.742,513.01 1379.752,506.25 1379.771,396.34 1379.789,499.81 1379.804,397.67 1379.821,215.03 1379.836,254.86 1379.857,365.17 1379.879,530.11 1379.89,551.42 1379.902,491.65 1379.914,473.02 1379.918,476.06 1379.926,460.65 1379.939,492.37 1379.951,558.25 1379.975,413.8 1380.003,440.98 1380.016,221.74 1380.029,171.57 1380.082,111.42 1380.611,238.42 1381.415,76.99 1381.738,711.81 1381.745,633.02 1381.757,603.16 1381.773,103.19 1381.816,202.71 1381.857,525.59 1381.869,765.86 1381.882,483.59 1381.885,501.1 1381.894,479.35 1381.971,112.8 1386.197,148.98 1391.475,728.8 1392.653,154.95 1392.713,106.68 1392.749,166.33 1392.785,949.74 1392.796,809.19 1392.807,909.45 1392.889,911.03 1393.163,117.11 1393.36,793.51 1393.391,739.64 1393.461,360.54 1393.51,837.57 1393.519,963.72 1393.523,903.21 1393.527,907.72 1393.68,921.61 1393.868,118.86 1393.939,152.67 1393.978,851.57 1393.988,914.23 1393.996,862.33 1393.998,918.06 1393.998,893.81 1393.999,761.62 1394.01,689.16 1394.1,73.88 1394.379,80.83 1394.621,105.0 1394.71,105.24 1394.769,96.32 1394.784,746.67 1394.79,894.4 1394.802,868.79 1394.822,972.2 1394.836,909.76 1394.911,607.24 1395.19,872.47 1396.657,519.2 1397.996,73.03 1398.083,795.15 1398.102,909.58 1398.115,941.06 1398.121,915.98 1398.127,924.53 1398.131,973.38 1398.14,970.24 1398.153,886.19 1398.158,858.77 1398.163,904.18 1398.174,845.81 1398.186,918.96 1398.386,903.28 1398.631,193.81 1398.745,94.27 1399.049,97.93 1401.922,183.21 1404.56,77.71 1404.568,70.92 1404.58,76.2 1404.591,142.57 1404.593,116.37 1404.595,153.35 1404.732,73.83 1404.877,731.89 1404.886,354.3 1404.894,321.29 1404.902,148.56 1404.904,298.43 1405.113,123.67 1405.401,377.88 1405.486,377.66 1405.501,510.37 1405.51,866.62 1405.518,928.27 1405.534,942.63 1405.544,949.98 1405.546,924.32 1405.548,925.29 1405.627,891.51 1405.997,105.57 1406.769,113.93 1407.279,59.36 1407.331,111.67 1407.363,832.57 1407.376,795.5 1407.383,828.42 1407.391,803.8 1407.452,855.84 1407.589,102.74 1407.745,301.57 1407.83,949.28 1407.844,917.49 1407.851,969.23 1407.854,955.71 1407.854,892.52 1407.855,918.22 1407.858,950.46 1407.863,964.26 1407.869,908.4 1407.879,949.94 1407.899,808.2 1407.953,690.5 1410.357,71.96 1412.751,402.3 1412.793,913.36 1412.809,969.48 1412.813,958.91 1412.816,968.42 1412.832,899.96 1412.87,952.99 1412.901,910.3 1413.472,910.48 1414.698,125.81 1415.362,112.4 1415.367,327.04 1415.418,169.04 1415.85,130.7 1416.24,481.42 1417.025,406.35 1418.095,877.68 1419.291,130.0 1421.02,349.01 1422.173,288.83 1422.551,140.53 1422.63,96.55 1422.659,704.07 1422.663,766.49 1422.675,849.79 1422.686,856.79 1422.703,819.44 1422.722,812.34 1422.78,231.24 1425.291,235.58 1427.77,202.11 1427.82,169.6 1427.85,163.2 1427.855,51.4 1427.865,138.38 1428.027,90.25 1428.212,69.22 1428.245,913.33 1428.25,942.13 1428.254,858.82 1428.256,658.39 1428.345,416.1 1428.553,420.4 1429.452,308.75 1430.235,112.23 1435.193,87.7 1440.198,107.99 1440.265,714.68 1440.279,795.56 1440.287,798.98 1440.295,912.36 1440.296,898.36 1440.3,865.82 1440.306,861.34 1440.311,883.05 1440.315,885.28 1440.322,772.92 1440.348,924.47 1440.435,693.71 1443.845,303.74 1447.47,98.95 1448.017,158.5 1449.377,365.5 1450.49,154.62 1450.515,73.33 1450.523,115.62 1450.529,82.12 1450.531,96.23 1450.533,102.52 1450.535,149.86 1450.536,198.76 1450.537,315.07 1450.539,139.07 1450.542,176.23 1450.549,273.94 1450.556,509.71 1450.571,620.97 1452.645,176.3 1454.712,170.8 1454.727,92.9 1454.753,85.23 1454.786,73.7 1454.806,107.03 1455.339,281.94 1456.544,721.37 1457.238,100.77 1457.254,91.25 1457.262,112.97 1457.283,115.38 1457.306,631.68 1457.672,639.4 1458.039,556.48 1458.059,566.25 1458.071,779.78 1458.074,761.15 1458.078,900.92 1458.693,865.97 1459.322,662.03 1459.38,757.14 1459.469,113.31 1461.409,111.7 1463.407,144.36 1463.664,392.74 1464.25,339.37 1465.544,202.64 1467.893,123.99 1469.387,157.15 1469.395,189.07 1469.41,171.94 1469.425,180.42 1469.616,113.79 1473.157,435.33 1476.926,103.74 1477.355,124.55 1477.397,76.93 1477.427,258.29 1477.453,101.6 1477.499,752.1 1477.52,954.12 1477.532,890.45 1477.549,744.38 1477.576,688.54 1477.641,461.93 1479.849,112.88 1482.044,177.86 1482.074,191.81 1482.076,94.58 1482.089,385.95 1482.102,148.46 1482.121,228.24 1482.526,578.71 1482.925,215.22 1482.944,103.63 1482.951,96.89 1483.04,107.65 1483.129,660.35 1483.143,830.6 1483.156,79.96 1483.16,54.14 1483.165,106.51 1483.884,69.81 1484.645,455.35 1484.698,528.69 1484.708,909.66 1484.715,915.89 1484.737,959.65 1484.754,949.14 1484.755,893.9 1484.768,956.54 1484.788,939.61 1484.828,858.24 1484.914,773.05 1485.19,308.46 1485.463,73.78 1485.553,906.11 1485.596,29.62 1485.601,197.49 1485.61,181.15 1485.7,133.15 1494.62,101.25 1503.514,120.43 1503.589,783.31 1503.611,918.06 1503.625,961.14 1503.632,970.48 1503.632,964.35 1503.634,966.38 1503.635,968.82 1503.636,959.13 1503.636,937.62 1503.637,968.42 1503.643,965.78 1503.651,922.98 1503.66,944.23 1503.708,886.17 1503.805,117.69 1503.964,96.31 1504.135,100.62 1504.426,765.24 1506.996,823.57 1509.637,602.78 1510.002,96.04 1510.086,927.71 1510.099,918.88 1510.111,918.2 1510.124,835.17 1510.136,845.48 1510.155,864.82 1510.168,909.91 1510.181,884.35 1510.264,895.97 1510.96,680.57 1511.665,240.6 1511.781,515.2 1511.841,636.18 1511.888,893.04 1511.908,635.41 1511.909,795.45 1511.914,941.28 1511.924,951.07 1511.929,961.23 1511.931,908.64 1511.947,810.24 1512.016,673.63 1512.675,320.03 1513.343,140.24 1513.413,79.12 1513.441,384.68 1513.464,953.24 1513.465,731.25 1513.466,702.39 1513.467,927.74 1513.473,905.31 1513.482,871.32 1513.489,901.82 1513.495,921.23 1513.502,941.26 1513.552,915.54 1513.648,158.63 1513.703,208.1 1513.717,71.54 1513.735,170.07 1513.747,467.56 1513.753,449.69 1513.764,443.65 1513.774,589.42 1513.776,404.1 1513.807,451.45 1513.838,667.75 1513.841,822.09 1513.844,735.45 1513.844,783.84 1513.86,884.63 1513.883,621.64 1513.895,892.09 1513.904,903.74 1513.965,812.56 1514.169,121.2 1514.959,146.38 1516.069,490.86 1516.599,526.14 1516.673,63.39 1516.705,375.98 1516.73,914.6 1516.737,948.88 1516.74,951.44 1516.742,638.27 1516.747,966.25 1516.753,961.73 1516.758,870.1 1516.848,805.63 1516.96,88.07 1516.995,255.68 1517.014,345.02 1517.034,361.73 1517.046,492.43 1517.455,620.48 1519.022,76.28 1521.3,279.46 1522.438,925.29 1522.783,95.91 1524.097,931.57 1525.088,884.53 1525.092,859.05 1525.097,832.87 1525.1,933.08 1525.1,902.93 1525.101,958.99 1525.102,958.54 1525.116,909.05 1525.129,689.68 1526.189,793.23 1527.253,72.49 1527.261,81.63 1527.298,195.1 1527.332,105.47 1527.407,115.77 1527.492,735.54 1527.519,421.81 1529.084,84.93 1531.161,949.5 1531.706,416.43 1532.038,151.75 1533.365,76.0 1534.467,66.6 1535.658,133.01 1537.272,927.89 1537.796,163.81 1537.81,777.43 1537.817,783.07 1537.823,874.86 1537.831,866.06 1541.458,795.62 1548.315,104.29 1551.589,71.29 1551.651,189.97 1551.675,834.32 1551.678,517.83 1551.692,283.21 1551.746,143.54 1552.595,203.34 1553.447,101.98 1553.544,161.73 1553.595,172.91 1553.602,225.1 1553.646,273.11 1553.736,147.07 1554.45,88.88 1555.644,118.71 1562.205,874.09 1568.467,82.61 1569.534,62.59 1572.866,165.44 1576.253,127.09 1578.121,103.19 1579.104,78.95 1582.754,170.76 1586.442,214.67 1586.487,394.93 1586.5,678.45 1586.527,105.56 1586.553,922.37 1586.599,890.55 1586.675,80.76 1586.751,421.22 1586.799,922.59 1586.809,963.64 1586.814,927.28 1586.819,851.69 1586.821,885.72 1586.822,676.87 1586.823,742.13 1586.824,791.22 1586.836,671.99 1586.851,140.2 1586.925,216.66 1592.444,255.46 1599.738,252.55 1601.722,732.3 1601.864,203.66 1601.874,90.16 1601.887,134.62 1601.9,87.67 1602.315,100.16 1602.765,690.08 1602.816,698.64 1602.83,938.29 1602.837,938.31 1602.85,834.47 1602.865,966.19 1602.877,801.78 1602.893,885.31 1602.911,958.19 1602.971,956.44 1603.184,759.61 1603.535,80.69 1603.732,469.43 1603.739,89.48 1603.742,325.91 1603.768,86.23 1603.818,155.4 1605.213,168.02 1606.649,123.9 1606.734,162.62 1606.754,90.82 1606.759,94.04 1606.79,93.67 1606.842,227.86 1607.553,63.42 1608.932,88.05 1609.636,194.18 1609.657,117.41 1609.668,70.03 1609.677,54.23 1609.691,41.33 1609.777,139.02 1609.99,756.04 1610.182,160.78 1610.248,335.12 1610.264,147.25 1610.276,724.31 1610.286,882.67 1610.291,939.39 1610.293,964.76 1610.294,907.64 1610.295,962.0 1610.299,971.35 1610.304,946.07 1610.309,948.78 1610.352,887.77 1610.444,746.77 1611.514,88.79 1612.533,111.36 1612.54,97.85 1612.547,279.54 1612.55,454.13 1612.552,761.23 1612.563,785.69 1612.758,171.53 1612.948,541.56 1613.805,786.01 1614.77,173.52 1615.12,64.51 1615.393,757.42 1615.44,63.1 1615.46,94.58 1615.471,890.57 1615.479,967.02 1615.485,915.11 1615.487,896.5 1615.493,871.93 1615.525,911.5 1615.579,145.04 1615.647,93.71 1615.711,68.5 1615.737,122.37 1615.746,471.77 1615.754,750.47 1615.757,953.69 1615.761,920.02 1615.768,950.61 1615.775,967.09 1615.786,923.99 1615.794,961.12 1615.807,861.91 1615.866,545.84 1616.655,179.87 1617.397,99.17 1617.552,89.56 1617.775,103.89 1618.357,512.6 1619.264,209.03 1619.699,448.78 1619.778,165.53 1619.817,815.28 1619.819,895.61 1619.832,945.88 1619.853,435.88 1619.864,937.21 1619.866,932.7 1619.867,949.49 1619.876,908.21 1619.886,678.67 1619.887,758.17 1619.889,849.99 1619.894,582.5 1625.343,704.25 1630.79,747.76 1630.798,837.56 1630.806,762.56 1630.817,781.25 1630.827,831.27 1630.83,941.89 1630.865,886.47 1631.02,729.24 1631.195,455.07 1631.289,738.66 1631.335,46.52 1631.341,138.34 1631.354,38.23 1631.412,56.76 1632.037,687.54 1632.634,344.99 1632.654,652.43 1632.657,737.68 1632.667,723.74 1632.682,703.94 1632.688,583.58 1632.695,455.54 1633.217,55.62 1633.805,73.54 1633.896,230.58 1633.92,320.49 1633.933,130.91 1633.95,191.58 1633.961,580.75 1634.058,144.12 1634.333,226.54 1634.557,210.16 1634.651,783.37 1634.704,114.61 1634.784,159.96 1634.904,368.23 1634.947,904.74 1634.964,950.88 1634.996,885.29 1635.022,649.39 1635.047,880.37 1635.078,741.34 1635.112,433.3 1635.137,837.21 1635.149,817.96 1635.154,771.98 1635.165,745.29 1635.181,931.18 1635.201,888.0 1635.218,821.86 1635.225,950.14 1635.229,940.28 1635.25,863.12 1635.273,891.44 1635.275,904.7 1635.277,911.09 1635.316,939.2 1635.485,114.04 1635.668,310.29 1635.747,184.75 1635.778,881.26 1635.786,939.72 1635.79,895.92 1635.791,960.69 1635.795,947.47 1635.878,733.66 1636.375,159.02 1636.838,71.45 1636.906,209.29 1636.935,385.38 1636.942,351.52 1636.945,102.13 1636.95,104.56 1636.981,202.07 1637.033,298.67 1637.094,115.26 1637.194,76.67 1637.296,93.83 1637.335,126.89 1637.351,60.48 1637.377,138.35 1637.391,105.54 1637.393,38.33 1637.439,32.56 1637.494,169.27 1637.579,76.98 1637.661,126.18 1637.67,110.28 1637.677,80.53 1637.697,154.4 1637.763,583.72 1637.824,112.09 1637.857,91.11 1637.882,84.63 1637.885,192.92 1637.917,100.22 1637.961,220.5 1637.979,147.48 1637.984,99.91 1638.02,86.7 1638.117,323.25 1638.307,58.16 1638.501,166.26 1638.6,92.32 1638.638,103.4 1638.645,34.36 1638.669,116.09 1638.769,184.13 1639.133,92.67 1639.475,98.73 1639.54,368.14 1639.57,67.53 1639.593,104.55 1639.597,109.56 1639.6,114.81 1639.614,53.65 1639.677,126.97 1639.788,57.15 1640.148,71.14 1640.639,390.77 1640.83,905.04 1640.831,948.63 1640.833,964.36 1640.834,968.65 1640.842,957.8 1640.85,917.41 1640.852,944.09 1640.858,962.81 1640.882,844.55 1641.021,88.84 1641.598,466.81 1642.115,147.29 1642.214,73.75 1642.253,96.86 1642.257,189.48 1642.299,34.43 1642.375,73.53 1642.792,89.13 1643.172,497.47 1643.188,442.17 1643.208,880.56 1643.237,738.47 1643.261,144.49 1643.794,290.88 1644.416,115.23 1644.511,614.16 1644.516,452.58 1644.53,832.17 1644.548,900.64 1644.554,959.61 1644.563,937.51 1644.573,926.46 1644.582,933.24 1644.666,519.33 1645.474,205.51 1646.367,97.12 1646.857,111.74 1647.225,280.31 1647.292,89.34 1647.323,953.39 1647.326,929.83 1647.35,893.53 1647.376,896.94 1647.381,899.43 1647.384,902.41 1647.385,895.46 1647.385,964.89 1647.39,974.15 1647.406,952.04 1647.421,948.44 1647.427,906.22 1647.433,868.12 1647.508,774.86 1647.757,709.72 1647.938,205.07 1647.943,182.35 1647.953,91.38 1647.963,89.33 1647.965,202.91 1647.97,388.35 1647.99,203.91 1648.007,116.3 1649.041,104.58 1650.225,869.71 1650.393,218.43 1650.415,123.12 1650.422,229.42 1650.426,190.36 1650.429,365.05 1650.43,199.73 1650.439,173.32 1651.257,99.11 1652.115,131.22 1652.176,120.03 1652.19,488.82 1652.196,364.21 1652.234,131.86 1652.284,857.05 1652.3,681.42 1652.303,662.03 1652.307,479.22 1652.315,420.36 1652.734,439.54 1653.168,814.93 1653.22,413.13 1653.255,640.94 1653.26,54.38 1653.264,59.83 1653.362,155.14 1653.678,94.8 1655.361,171.35 1656.83,774.81 1656.837,232.66 1656.842,159.38 1656.861,892.67 1656.877,65.71 1657.247,86.74 1657.711,64.81 1657.807,942.82 1657.807,938.96 1657.81,853.61 1657.813,935.05 1657.814,961.5 1657.816,942.85 1657.817,910.54 1657.818,957.5 1657.826,967.97 1657.844,883.44 1657.855,965.86 1657.857,881.03 1657.863,959.8 1657.907,916.25 1657.963,145.37 1658.237,91.81 1658.509,423.18 1658.563,229.23 1658.612,901.05 1658.624,861.06 1658.63,930.49 1658.663,648.95 1658.733,346.9 1660.25,94.96 1661.862,89.45 1662.044,151.81 1662.103,70.76 1662.138,365.95 1662.163,35.59 1662.174,88.5 1662.193,119.11 1662.276,294.44 1662.407,408.21 1662.526,119.75 1662.606,225.76 1662.635,338.16 1662.644,411.9 1662.675,237.76 1662.702,111.44 1662.708,208.87 1662.713,132.98 1663.454,253.37 1664.217,87.89 1664.328,131.84 1664.421,319.65 1664.427,366.26 1664.436,446.82 1664.451,127.78 1664.46,76.08 1664.475,169.89 1664.736,276.81 1665.066,148.56 1665.17,254.95 1665.193,163.63 1665.196,340.59 1665.197,139.6 1665.201,355.02 1665.206,464.08 1665.228,188.82 1665.373,124.76 1665.913,107.72 1666.331,522.19 1666.338,269.27 1666.346,140.68 1666.509,136.23 1666.671,409.0 1666.677,686.41 1666.696,447.51 1666.713,71.0 1666.719,58.11 1666.883,69.68 1667.046,378.96 1667.05,157.35 1667.052,608.21 1667.052,181.58 1667.059,475.87 1667.066,571.82 1667.071,394.0 1667.357,159.52 1668.438,406.17 1669.871,232.59 1671.009,87.79 1671.554,43.73 1671.63,203.87 1671.672,883.38 1671.68,906.0 1671.684,942.77 1671.685,912.19 1671.686,929.86 1671.687,961.63 1671.689,877.17 1671.69,920.97 1671.694,953.02 1671.705,845.04 1671.714,810.48 1671.719,949.03 1671.751,706.9 1671.795,206.41 1671.819,256.85 1671.835,271.84 1671.847,82.22 1671.852,126.33 1672.158,146.08 1672.5,247.83 1672.539,431.23 1672.559,864.0 1672.581,953.49 1672.595,891.31 1672.645,762.06 1672.742,721.08 1672.959,424.9 1674.16,319.41 1675.247,173.21 1675.297,129.84 1675.329,267.27 1675.357,655.43 1675.361,152.34 1675.365,492.27 1675.372,46.34 1675.435,146.69 1675.672,103.91 1675.881,69.78 1676.0,309.98 1676.139,216.29 1676.213,150.31 1676.275,93.97 1676.367,44.76 1676.481,248.53 1676.607,937.77 1676.675,537.01 1677.146,398.5 1677.655,735.06 1677.711,900.63 1677.727,211.41 1677.728,311.46 1677.731,379.08 1677.802,350.31 1678.386,344.31 1678.917,843.2 1678.936,730.54 1678.954,680.35 1678.978,504.93 1679.184,322.42 1679.419,356.99 1679.489,393.31 1679.521,852.25 1679.522,951.69 1679.53,770.08 1679.546,889.72 1679.556,966.41 1679.57,871.63 1679.588,931.44 1679.631,899.71 1679.718,421.25 1679.972,131.61 1680.198,385.37 1680.249,84.28 1680.29,167.17 1680.304,95.41 1680.31,128.25 1680.316,52.89 1680.411,70.76 1680.72,89.44 1680.997,262.85 1681.083,150.82 1681.117,451.67 1681.13,179.14 1681.153,278.37 1681.174,146.34 1681.181,135.66 1681.236,44.91 1681.317,169.89 1681.366,109.67 1681.873,369.63 1683.641,94.52 1685.276,519.69 1687.072,254.04 1688.519,855.9 1688.529,663.97 1688.539,610.37 1688.556,688.73 1688.643,174.27 1688.72,440.12 1688.748,394.05 1688.774,285.03 1688.85,87.59 1689.082,295.72 1689.297,142.16 1689.357,75.11 1689.629,882.77 1690.352,82.39 1690.813,906.38 1690.829,968.78 1690.841,968.51 1690.844,962.59 1690.846,958.24 1690.846,970.74 1690.847,960.13 1690.847,966.32 1690.85,886.41 1690.856,888.27 1690.861,910.42 1690.862,950.9 1690.919,840.11 1691.239,332.57 1691.502,896.21 1691.506,931.37 1691.51,906.59 1691.52,934.0 1691.527,964.55 1691.528,881.42 1691.529,904.89 1691.53,970.84 1691.531,970.82 1691.543,908.33 1691.58,931.21 1691.664,296.48 1692.034,93.35 1693.491,113.51 1695.029,539.65 1695.484,335.84 1695.561,277.09 1695.578,967.39 1695.583,877.72 1695.584,964.19 1695.591,945.76 1695.598,896.14 1695.599,843.75 1695.606,841.18 1695.63,940.22 1695.647,908.66 1695.66,893.77 1695.749,426.25 1696.157,158.05 1697.217,96.88 1698.169,83.8 1698.898,117.49 1699.469,107.06 1699.536,128.07 1699.545,88.57 1699.556,371.2 1699.561,36.72 1699.579,167.52 1699.647,683.56 1699.719,132.93 1699.743,79.43 1699.746,65.76 1699.748,162.64 1699.79,47.09 1699.854,517.42 1699.886,606.8 1699.895,198.07 1699.897,382.4 1699.932,553.35 1700.004,312.56 1700.06,317.51 1700.124,697.26 1700.173,244.36 1700.179,268.0 1700.183,116.88 1700.202,42.07 1700.254,98.95 1700.376,149.73 1700.511,53.83 1700.576,93.04 1700.601,592.36 1700.609,720.06 1700.615,962.21 1700.621,734.23 1700.623,902.11 1700.63,965.01 1700.639,916.63 1700.645,960.76 1700.655,864.88 1700.665,944.7 1700.671,927.04 1700.674,953.12 1700.676,948.63 1700.677,944.75 1700.689,855.53 1700.706,688.56 1701.105,643.32 1701.517,365.99 1701.58,224.71 1701.628,110.52 1701.634,86.04 1701.639,258.32 1701.706,204.76 1701.93,145.22 1702.124,425.41 1702.171,426.89 1702.202,548.26 1702.219,908.36 1702.229,941.64 1702.238,725.31 1702.24,761.39 1702.244,969.14 1702.249,970.64 1702.252,969.4 1702.257,943.54 1702.269,886.02 1702.278,937.37 1702.347,916.46 1703.4,838.68 1704.42,102.66 1704.484,74.12 1704.532,80.57 1704.554,110.25 1704.559,139.82 1704.589,218.99 1704.655,225.16 1704.914,297.39 1705.213,413.77 1705.293,571.6 1705.3,246.34 1705.306,471.86 1705.309,498.25 1705.311,462.01 1705.313,323.26 1705.313,534.08 1705.316,756.48 1705.319,286.93 1705.323,248.31 1705.353,282.92 1705.386,166.97 1705.398,196.93 1705.407,259.72 1705.445,256.65 1705.486,376.94 1705.499,219.04 1705.525,468.14 1705.546,766.29 1705.612,831.49 1708.713,129.58 1711.785,147.5 1711.865,96.4 1711.908,603.34 1711.912,644.93 1711.959,645.89 1712.049,329.46 1712.227,109.7 1713.59,903.45 1714.883,297.33 1714.952,815.69 1714.97,751.09 1714.983,826.43 1714.986,935.3 1714.996,882.47 1715.088,397.09 1715.766,156.88 1716.411,216.65 1716.477,208.2 1716.511,94.97 1716.53,85.73 1716.565,112.34 1716.644,137.07 1716.707,679.31 1716.729,610.64 1716.77,706.0 1716.812,299.95 1716.825,301.86 1716.881,213.38 1716.93,313.98 1717.075,370.03 1717.268,108.42 1717.352,220.99 1717.394,824.0 1717.403,575.91 1717.408,458.15 1717.412,238.91 1717.445,184.73 1717.537,742.36 1717.622,774.34 1717.673,566.1 1717.705,98.9 1717.715,111.64 1717.749,529.48 1717.823,166.82 1717.872,590.82 1717.877,414.25 1717.894,417.65 1717.924,40.3 1717.988,91.19 1718.098,264.15 1718.158,953.42 1718.159,921.25 1718.177,862.01 1718.204,949.62 1718.218,860.87 1718.232,965.56 1718.242,967.26 1718.333,871.33 1718.48,93.25 1718.739,150.76 1718.962,128.38 1719.012,137.92 1719.051,105.11 1719.061,144.98 1719.07,202.0 1719.083,250.46 1719.12,178.01 1719.187,761.73 1719.266,189.21 1719.307,195.07 1719.315,196.15 1719.334,88.51 1719.347,491.85 1719.348,543.03 1719.352,316.68 1719.355,215.58 1719.364,427.93 1719.45,704.28 1719.569,137.37 1719.635,177.49 1719.668,114.35 1719.683,275.37 1719.692,516.81 1719.696,922.33 1719.741,883.76 1719.841,742.2 1720.33,137.03 1720.765,791.14 1720.769,769.17 1720.782,772.49 1720.798,164.99 1720.81,157.5 1720.823,82.6 1720.916,274.39 1721.053,119.8 1721.106,137.2 1721.111,66.03 1721.112,141.75 1721.118,206.37 1721.16,92.53 1721.234,148.5 1721.514,606.47 1722.549,926.31 1724.16,82.22 1725.0,764.88 1725.066,76.89 1725.112,237.51 1725.122,153.5 1725.133,508.76 1725.222,86.74 1727.475,149.9 1729.692,232.05 1729.753,272.81 1729.771,105.83 1729.778,72.13 1729.781,124.53 1729.783,124.51 1729.79,148.25 1729.807,270.31 1729.819,775.31 1729.823,870.91 1729.826,947.45 1729.828,953.69 1729.834,957.54 1729.845,958.62 1729.852,922.93 1729.858,928.59 1729.915,889.79 1730.326,116.15 1731.022,151.41 1731.408,67.03 1731.483,81.03 1731.534,112.88 1731.564,98.27 1731.575,98.51 1731.584,124.53 1731.588,91.64 1731.64,170.99 1732.175,294.85 1732.699,174.07 1732.757,404.8 1732.788,358.46 1732.801,909.02 1732.802,958.03 1732.811,964.09 1732.825,968.08 1732.839,894.37 1732.85,948.15 1732.867,893.42 1732.893,170.55 1732.966,480.41 1733.053,86.72 1733.113,140.43 1733.151,883.73 1733.189,904.25 1733.251,534.08 1733.28,921.44 1733.291,876.92 1733.3,878.82 1733.303,810.03 1733.309,581.0 1733.315,502.38 1733.322,585.42 1733.329,118.77 1733.421,248.72 1733.721,193.02 1733.93,700.83 1733.985,684.99 1734.336,92.03 1734.649,109.5 1734.674,91.59 1734.71,73.2 1734.741,733.81 1734.746,682.13 1734.762,726.01 1734.814,816.04 1735.187,99.21 1735.541,259.37 1735.605,468.84 1735.658,919.39 1735.669,947.04 1735.673,956.67 1735.682,957.2 1735.689,734.0 1735.739,934.98 1735.803,634.88 1735.924,847.44 1736.083,636.21 1736.158,393.8 1736.188,165.02 1736.198,352.91 1736.205,105.01 1736.238,107.68 1736.289,78.23 1736.311,949.07 1736.315,630.13 1736.32,925.76 1736.328,862.23 1736.336,902.86 1736.339,943.52 1736.345,956.75 1736.352,959.01 1736.356,944.03 1736.451,937.06 1736.729,378.91 1736.94,73.42 1736.969,93.9 1737.004,256.15 1737.042,116.76 1737.071,147.17 1737.282,220.01 1737.478,856.27 1737.487,901.75 1737.489,756.47 1737.489,804.33 1737.513,903.54 1737.538,580.38 1737.542,694.54 1737.785,724.94 1738.093,268.38 1738.165,265.34 1738.17,284.67 1738.175,218.24 1738.177,471.99 1738.181,383.59 1738.198,212.12 1738.281,626.97 1739.215,396.88 1740.079,967.64 1740.08,966.37 1740.106,903.89 1740.141,944.91 1740.154,919.45 1741.426,915.95 1742.7,567.8 1742.896,635.91 1743.089,168.57 1743.104,367.18 1743.125,737.66 1743.517,681.45 1743.929,152.35 1743.995,179.24 1744.042,118.76 1744.065,35.51 1744.149,691.08 1744.469,83.32 1744.777,98.88 1744.836,129.59 1744.841,116.03 1744.845,89.19 1744.888,110.99 1744.963,55.89 1745.214,128.28 1745.456,231.43 1745.506,131.28 1745.531,111.36 1745.536,84.49 1745.571,154.48 1745.626,291.79 1745.741,287.0 1745.907,101.61 1745.983,81.05 1745.986,125.22 1745.992,72.89 1745.996,110.16 1746.014,70.9 1746.09,74.01 1746.734,417.44 1747.368,113.08 1747.417,337.58 1747.418,97.29 1747.432,108.77 1747.464,882.81 1747.493,843.49 1747.509,883.39 1747.583,933.17 1749.365,249.26 1751.57,850.13 1752.123,196.94 1752.196,68.95 1752.207,923.03 1752.208,897.69 1752.209,955.63 1752.219,949.36 1752.233,966.23 1752.273,862.97 1752.372,78.45 1752.925,89.38 1753.425,508.53 1753.457,135.33 1753.483,110.58 1753.5,551.9 1753.512,858.43 1753.514,959.8 1753.516,960.9 1753.523,961.83 1753.529,943.84 1753.531,930.11 1753.536,959.4 1753.539,953.16 1753.55,941.53 1753.601,899.13 1753.701,171.24 1753.767,922.64 1753.795,235.39 1753.833,395.75 1753.872,401.98 1753.896,289.76 1753.9,275.89 1753.906,301.65 1753.924,510.73 1754.013,267.28 1754.108,812.28 1754.132,609.17 1754.335,310.57 1754.572,700.16 1754.625,814.83 1754.638,178.49 1754.645,311.12 1754.657,231.04 1754.703,106.36 1754.769,269.5 1754.824,337.93 1754.882,659.54 1754.924,812.9 1754.938,144.9 1754.942,485.07 1754.965,151.67 1755.017,193.98 1755.058,456.46 1755.075,264.93 1755.106,46.13 1755.159,856.81 1755.191,164.77 1755.196,136.15 1755.236,633.39 1756.054,355.3 1756.899,133.02 1756.965,143.32 1756.968,130.16 1756.975,216.33 1756.982,46.08 1756.997,54.77 1757.04,144.64 1757.129,603.06 1757.731,617.14 1758.492,150.02 1758.747,231.54 1758.791,736.75 1758.834,617.04 1758.873,960.84 1758.887,962.93 1758.9,957.13 1758.907,959.34 1758.919,963.81 1758.926,936.26 1758.95,872.01 1758.975,963.55 1758.988,890.86 1759.01,737.77 1759.043,177.43 1759.13,579.38 1759.427,116.09 1759.714,88.53 1759.77,158.98 1759.778,91.52 1759.786,44.57 1759.814,132.28 1759.895,78.51 1759.984,435.44 1760.021,244.78 1760.03,627.02 1760.037,767.44 1760.501,699.85 1761.042,144.41 1761.123,422.91 1761.129,377.18 1761.137,417.23 1761.142,663.66 1761.144,691.56 1761.144,626.51 1761.145,573.95 1761.146,642.79 1761.146,632.51 1761.154,606.71 1761.163,782.36 1761.164,666.18 1761.197,380.03 1761.284,673.11 1761.339,403.8 1761.343,399.07 1761.358,194.05 1761.37,101.44 1761.372,158.58 1761.441,112.17 1761.511,206.84 1761.524,107.28 1761.539,151.96 1761.543,350.8 1761.545,62.61 1761.629,78.07 1761.73,441.18 1761.79,891.43 1761.839,874.97 1761.848,957.97 1761.849,916.39 1761.85,946.4 1761.851,935.36 1761.871,948.14 1761.927,915.51 1761.982,587.77 1762.088,733.0 1762.252,264.92 1762.349,219.41 1762.371,130.83 1762.384,26.0 1762.488,115.55 1762.616,107.08 1762.709,544.4 1762.804,173.54 1762.846,134.14 1762.853,124.36 1762.894,36.9 1762.961,128.18 1762.992,272.27 1762.996,122.41 1763.034,291.01 1763.072,101.19 1763.084,150.43 1763.096,86.7 1763.1,59.95 1763.108,129.54 1763.158,142.94 1763.264,257.6 1763.373,393.03 1763.421,465.73 1763.452,652.56 1763.487,177.46 1763.507,99.65 1763.534,270.04 1763.553,99.08 1763.565,586.06 1763.571,292.2 1763.61,488.66 1763.709,153.53 1763.79,188.35 1763.812,862.24 1763.813,960.38 1763.817,963.09 1763.826,936.79 1763.831,927.53 1763.833,964.2 1763.84,907.86 1763.863,905.26 1763.923,152.41 1764.162,647.73 1764.358,909.72 1764.366,943.1 1764.377,915.67 1764.422,895.21 1764.479,246.89 1764.506,367.77 1764.521,497.41 1764.524,452.47 1764.528,316.03 1764.536,566.12 1764.544,392.14 1764.555,505.83 1764.569,191.25 1764.586,242.57 1764.893,353.85 1765.22,116.39 1765.284,189.92 1765.318,666.46 1765.323,719.6 1765.328,486.79 1765.381,512.1 1765.872,229.68 1766.348,519.87 1766.406,86.99 1766.429,535.54 1766.435,597.48 1766.439,292.16 1766.466,405.16 1766.559,94.81 1767.308,351.22 1768.022,98.11 1768.075,181.44 1768.106,181.55 1768.121,320.23 1768.128,431.63 1768.132,545.68 1768.157,336.76 1768.217,162.61 1768.617,402.28 1769.227,147.94 1769.533,74.23 1769.599,205.2 1769.606,591.82 1769.612,717.6 1769.628,807.81 1769.655,851.42 1769.686,421.31 1769.713,127.26 1769.727,30.53 1769.737,212.09 1769.83,89.96 1769.926,164.08 1769.964,232.49 1770.015,267.63 1770.042,145.77 1770.049,350.91 1770.078,313.56 1770.972,251.6 1771.916,178.57 1772.078,198.65 1772.167,541.69 1772.18,287.88 1772.191,39.07 1772.194,221.75 1772.197,130.0 1772.205,83.65 1772.274,70.65 1772.35,868.54 1772.511,329.54 1772.665,90.98 1772.677,181.09 1772.69,282.56 1772.708,236.83 1772.726,109.69 1773.274,247.2 1773.858,331.62 1773.899,95.54 1773.907,64.86 1774.145,163.98 1774.405,459.51 1774.444,897.03 1774.454,199.57 1774.472,267.02 1774.622,221.64 1774.776,205.85 1774.806,149.47 1774.822,182.11 1774.834,170.67 1775.154,82.0 1775.474,128.09 1775.503,166.79 1775.565,97.77 1775.722,479.88 1775.893,476.22 1775.952,165.84 1776.192,105.05 1776.456,482.62 1776.515,695.63 1776.688,443.43 1776.835,113.97 1776.854,68.73 1776.875,135.79 1776.903,504.36 1776.941,617.2 1777.203,196.77 1777.448,165.1 1777.456,91.96 1777.463,102.81 1777.813,410.11 1778.166,100.19 1778.175,248.4 1778.201,112.8 1778.246,347.28 1778.47,793.01 1778.686,146.75 1778.705,170.43 1778.712,249.62 1778.716,725.98 1778.723,751.16 1778.755,220.71 1778.959,124.07 1779.143,90.64 1779.148,413.58 1779.179,106.38 1779.219,731.49 1779.399,546.19 1779.579,333.48 1779.596,264.76 1779.608,516.09 1779.63,92.35 1779.689,76.83 1779.735,279.47 1779.739,296.55 1779.743,136.11 1779.747,108.68 1779.748,204.62 1779.754,165.83 1779.975,361.43 1780.198,593.1 1780.208,557.58 1780.216,763.62 1780.59,279.9 1780.965,225.39 1780.981,539.18 1780.996,113.63 1781.007,132.32 1781.331,87.7 1781.674,158.61 1781.698,127.91 1781.713,111.67 1781.883,758.26 1782.103,200.57 1782.236,273.17 1782.314,498.29 1782.327,717.56 1782.336,870.82 1782.379,874.54 1782.423,891.52 1782.436,820.27 1782.441,952.69 1782.444,912.9 1782.45,910.75 1782.454,834.02 1782.711,932.07 1783.001,419.73 1783.043,905.15 1783.054,691.87 1783.12,417.85 1783.673,61.37 1784.242,372.87 1784.341,696.61 1784.366,573.92 1784.372,230.12 1784.448,690.16 1784.993,732.39 1786.142,120.28 1786.845,131.15 1786.889,535.89 1786.925,818.45 1786.943,913.95 1786.949,972.1 1786.955,957.92 1786.957,887.37 1786.957,867.4 1786.969,911.72 1786.981,867.1 1786.984,885.79 1787.071,843.19 1787.327,216.35 1787.556,206.7 1787.644,255.6 1787.696,94.81 1787.723,669.16 1787.733,952.29 1787.741,917.6 1787.758,908.06 1787.785,961.84 1787.801,464.58 1787.806,184.69 1787.835,160.74 1787.886,190.09 1788.538,603.46 1789.189,868.88 1789.257,134.67 1789.306,228.45 1789.314,176.72 1789.317,302.22 1789.365,123.99 1789.42,97.67 1789.894,222.0 1790.405,658.28 1790.458,810.91 1790.476,926.34 1790.492,896.99 1790.517,841.42 1790.541,786.25 1790.543,900.35 1790.547,968.66 1790.55,892.63 1790.55,954.15 1790.557,953.59 1790.568,951.86 1790.572,841.6 1790.577,932.32 1790.599,875.17 1790.698,911.83 1790.901,285.39 1791.096,131.67 1791.182,161.93 1791.194,165.23 1791.198,208.74 1791.238,120.88 1791.316,219.04 1791.557,43.09 1791.829,453.6 1791.916,121.94 1791.934,434.41 1791.937,709.41 1791.972,703.31 1792.026,163.15 1792.049,141.89 1792.055,94.15 1792.106,50.03 1792.2,134.35 1792.354,149.1 1792.466,956.31 1792.52,853.98 1792.572,170.3 1792.575,240.53 1792.739,344.45 1792.9,371.28 1792.901,189.11 1792.903,249.75 1792.907,258.6 1792.912,245.35 1792.915,123.13 1792.92,108.17 1792.928,127.29 1792.931,276.87 1793.104,197.73 1793.279,687.91 1793.288,369.15 1793.303,636.39 1793.314,208.83 1793.316,96.89 1793.327,81.41 1793.37,307.82 1793.409,856.63 1793.421,734.17 1793.441,897.19 1793.461,823.69 1793.467,956.44 1793.475,819.48 1793.492,885.17 1793.522,900.13 1793.62,387.68 1793.708,228.44 1793.753,134.14 1793.793,548.02 1793.818,576.19 1793.84,954.28 1793.845,970.42 1793.847,904.24 1793.857,961.13 1793.873,967.57 1793.88,950.98 1793.882,922.04 1793.98,962.4 1794.168,133.31 1794.26,258.23 1794.263,332.15 1794.265,31.18 1794.271,26.56 1794.315,45.96 1794.37,887.08 1794.485,111.97 1794.636,303.09 1794.693,40.47 1794.737,117.99 1794.775,299.49 1794.779,123.02 1794.781,123.31 1794.787,403.45 1794.803,184.39 1794.892,183.17 1795.039,364.8 1795.123,66.69 1795.175,81.25 1795.216,529.13 1795.245,259.89 1795.348,183.16 1795.428,237.45 1795.45,98.44 1795.474,91.08 1795.484,202.41 1795.578,108.61 1795.683,435.67 1795.895,376.9 1796.15,319.59 1796.214,195.49 1796.237,309.62 1796.26,180.55 1796.264,225.89 1796.266,461.24 1796.315,106.05 1796.372,456.76 1796.385,82.26 1796.397,24.25 1796.426,105.7 1796.517,73.8 1796.705,806.0 1796.853,306.7 1796.897,747.06 1796.915,736.69 1796.928,448.25 1796.97,231.93 1797.052,106.54 1797.099,378.68 1797.101,103.4 1797.103,474.9 1797.104,225.79 1797.107,271.96 1797.379,491.54 1797.693,67.2 1797.75,540.15 1797.768,416.26 1797.785,552.56 1797.81,883.75 1797.825,888.35 1797.832,675.67 1797.897,474.09 1798.053,34.37 1798.201,114.32 1798.26,92.7 1798.312,313.43 1798.419,178.95 1799.472,750.19 1800.479,401.23 1800.507,186.03 1800.52,469.8 1800.523,426.35 1800.526,287.73 1800.53,702.64 1800.55,710.59 1800.571,962.9 1800.577,936.93 1800.589,868.85 1800.615,930.31 1800.636,965.48 1800.655,899.86 1800.677,113.66 1800.756,281.33 1800.973,104.97 1801.441,182.19 1801.803,193.11 1801.873,373.52 1801.909,33.27 1801.919,253.74 1801.972,74.84 1802.033,395.93 1802.72,135.46 1803.443,845.78 1803.516,96.96 1803.548,113.98 1803.561,24.34 1803.571,136.27 1803.629,123.38 1803.701,103.56 1805.521,674.5 1807.612,237.97 1807.989,50.48 1808.12,98.29 1808.903,397.32 1809.642,297.54 1809.647,313.86 1809.693,215.45 1809.741,288.0 1809.748,136.7 1809.75,237.49 1809.753,65.88 1809.769,78.72 1809.856,86.18 1810.004,183.41 1810.1,164.07 1810.122,317.54 1810.125,183.03 1810.132,51.85 1810.171,69.51 1810.208,150.12 1810.218,124.97 1810.235,92.53 1810.304,68.4 1810.44,78.57 1810.564,101.97 1810.651,231.22 1810.695,200.04 1810.698,286.99 1810.704,146.58 1810.71,64.67 1810.717,63.69 1810.722,86.95 1810.738,159.61 1810.823,141.45 1810.97,84.22 1811.074,208.06 1811.126,88.57 1811.172,130.43 1811.195,193.91 1811.201,669.98 1811.208,884.58 1811.23,965.87 1811.251,894.53 1811.253,966.19 1811.254,969.39 1811.255,966.15 1811.256,968.78 1811.257,961.24 1811.26,966.19 1811.261,972.32 1811.265,961.88 1811.276,873.42 1811.284,854.88 1811.292,930.22 1811.304,763.69 1811.34,571.57 1811.419,152.09 1811.492,163.76 1811.545,282.28 1811.578,186.48 1811.597,240.72 1811.614,143.29 1811.619,139.65 1811.663,157.2 1811.719,63.44 1811.801,177.23 1811.881,35.28 1811.942,191.71 1811.995,107.42 1812.0,302.77 1812.01,304.18 1812.06,254.32 1812.137,152.94 1813.098,89.66 1814.07,270.86 1814.134,351.96 1814.158,250.72 1814.213,75.71 1814.265,94.06 1814.626,40.78 1815.038,356.73 1815.107,535.0 1815.123,98.5 1815.127,111.72 1815.145,195.43 1815.19,126.17 1815.234,49.51 1815.503,88.57 1815.764,75.75 1815.777,327.17 1815.819,589.05 1815.891,100.58 1815.984,46.57 1816.216,532.54 1816.406,152.57 1816.456,81.42 1816.498,176.9 1816.511,512.16 1816.515,478.65 1816.522,138.22 1816.608,210.31 1816.832,78.19 1817.013,78.48 1817.061,806.08 1817.085,953.04 1817.096,949.86 1817.103,927.8 1817.11,788.64 1817.111,854.78 1817.115,773.68 1817.12,964.5 1817.137,776.87 1817.154,916.65 1817.16,903.52 1817.203,898.84 1817.299,401.35 1817.611,760.61 1817.984,712.08 1818.106,240.74 1818.108,293.25 1818.109,325.53 1818.114,157.51 1818.117,171.5 1818.133,59.2 1818.164,208.59 1818.181,49.78 1818.183,100.18 1818.212,164.08 1818.24,334.52 1818.248,709.62 1818.319,756.07 1818.388,270.15 1818.392,226.66 1818.395,233.56 1818.4,164.01 1818.409,148.64 1818.473,133.12 1818.597,247.9 1818.674,541.67 1818.742,825.68 1818.805,774.89 1818.815,791.02 1818.826,919.88 1818.846,915.38 1818.873,286.52 1818.891,649.03 1818.975,811.8 1819.155,203.79 1819.26,786.74 1819.371,793.14 1819.525,340.04 1819.595,811.53 1819.619,648.44 1819.62,712.87 1819.626,760.27 1819.633,922.06 1819.655,837.44 1819.679,561.53 1819.688,624.81 1819.697,566.33 1819.701,517.79 1819.79,819.99 1820.077,33.26 1820.301,125.1 1820.363,157.88 1820.403,798.25 1820.407,903.08 1820.412,805.81 1820.433,606.18 1820.477,740.65 1820.512,162.85 1820.57,387.48 1820.626,146.9 1820.638,79.29 1820.656,258.93 1820.693,197.32 1820.74,110.25 1820.764,293.98 1820.779,397.66 1820.795,253.81 1820.799,238.56 1820.85,199.55 1820.923,182.42 1820.959,29.97 1821.148,116.27 1821.357,258.58 1821.413,84.46 1821.457,99.93 1821.48,135.95 1821.483,51.81 1821.486,229.46 1821.521,90.0 1821.573,134.33 1821.665,101.96 1821.739,127.16 1821.754,154.91 1821.775,145.71 1821.81,113.71 1821.9,179.25 1822.041,159.76 1822.178,184.44 1822.275,163.6 1822.326,504.34 1822.339,251.12 1822.343,270.41 1822.349,147.67 1822.355,86.04 1822.397,46.04 1822.45,93.48 1822.469,383.01 1822.478,93.74 1822.506,155.74 1822.584,319.78 1822.957,187.21 1823.287,293.97 1823.364,159.61 1823.454,110.49 1823.519,78.91 1823.601,142.91 1823.642,791.38 1823.689,638.52 1823.74,49.32 1823.75,327.94 1823.781,87.05 1823.83,387.6 1823.89,182.9 1823.936,408.15 1823.957,896.98 1823.978,933.08 1823.987,941.87 1823.989,926.42 1823.99,918.79 1823.99,940.89 1823.995,942.44 1824.017,834.24 1824.038,207.07 1824.057,489.29 1824.12,941.22 1824.326,199.26 1824.504,197.28 1824.524,360.28 1824.53,173.52 1824.568,213.79 1824.604,961.71 1824.618,928.63 1824.64,920.02 1824.653,890.4 1824.664,899.32 1824.675,863.16 1824.701,517.32 1824.781,55.92 1825.539,97.24 1826.253,99.27 1826.276,412.38 1826.301,202.72 1826.331,268.88 1826.355,406.12 1826.375,625.51 1826.391,736.13 1826.399,863.63 1826.435,820.64 1826.496,342.28 1826.577,60.93 1827.21,125.01 1827.796,865.55 1828.068,109.1 1828.399,57.98 1828.49,382.21 1828.547,168.21 1828.584,180.1 1828.642,141.77 1828.701,206.22 1828.744,392.67 1828.858,504.13 1828.953,213.97 1828.973,515.45 1828.982,942.6 1829.0,667.35 1829.011,962.02 1829.02,909.97 1829.029,958.08 1829.039,902.88 1829.055,926.01 1829.067,863.38 1829.073,911.09 1829.08,810.86 1831.028,293.98 1833.474,817.98 1834.053,753.25 1834.141,347.9 1834.17,57.47 1834.216,20.0 1834.312,533.29 1834.438,144.19 1835.136,151.23 1837.535,114.02 1839.306,101.34 1839.331,330.6 1839.348,347.89 1839.353,86.67 1839.355,72.27 1839.705,176.67 1840.085,135.91 1840.163,679.99 1840.216,89.67 1840.225,59.18 1840.254,84.48 1840.287,118.06 1840.295,120.46 1840.342,253.13 1840.429,166.05 1840.535,158.77 1840.599,387.16 1840.604,442.77 1840.616,694.88 1840.625,720.97 1840.69,777.46 1841.173,111.54 1841.655,109.7 1841.76,223.6 1841.817,235.75 1841.905,438.87 1842.194,253.0 1842.476,248.55 1842.555,89.0 1842.568,256.82 1842.577,355.26 1842.615,213.5 1842.7,135.47 1842.811,209.23 1842.931,153.88 1843.019,153.29 1843.062,86.85 1843.092,33.43 1843.111,108.89 1843.195,102.33 1843.609,116.21 1844.672,90.63 1845.446,828.76 1845.498,839.22 1845.515,709.19 1845.535,861.38 1845.553,888.86 1845.563,947.42 1845.57,886.02 1845.58,884.03 1845.586,871.59 1845.59,815.72 1845.645,566.71 1845.745,327.24 1845.818,791.9 1845.88,299.09 1845.917,902.04 1845.923,902.36 1845.928,928.16 1845.932,934.93 1845.944,828.21 1845.957,838.89 1845.964,887.93 1846.017,921.03 1846.067,522.07 1846.07,205.45 1846.071,180.05 1846.108,66.67 1846.146,53.78 1846.175,173.44 1846.223,121.11 1846.262,132.68 1846.281,123.85 1846.31,120.81 1846.38,86.53 1846.599,39.65 1846.81,77.73 1846.859,260.67 1846.898,152.6 1846.922,120.67 1846.925,69.33 1846.942,53.65 1846.962,198.29 1846.977,102.63 1847.0,322.06 1847.028,176.69 1847.05,145.27 1847.071,82.35 1847.146,191.03 1847.255,180.88 1847.353,313.55 1847.408,121.04 1847.424,267.46 1847.499,465.28 1847.946,80.34 1848.385,118.8 1848.482,97.59 1848.53,197.95 1848.539,147.82 1848.548,195.49 1848.58,144.49 1848.62,130.44 1848.641,171.96 1848.663,430.35 1848.679,50.99 1848.682,191.7 1848.703,220.44 1848.726,67.94 1848.74,130.69 1848.769,85.26 1848.834,444.39 1849.099,181.11 1849.331,661.14 1850.484,671.01 1851.679,52.12 1851.741,712.15 1851.756,888.62 1851.782,948.46 1851.805,962.57 1851.823,869.46 1851.887,659.6 1852.145,65.02 1852.374,201.51 1852.399,188.48 1852.43,303.74 1852.465,64.8 1852.474,29.24 1852.491,56.14 1852.512,252.3 1852.607,92.39 1852.817,433.34 1853.011,95.04 1853.1,117.64 1853.129,290.21 1853.141,58.2 1853.153,656.92 1853.168,159.92 1853.211,183.46 1853.28,133.73 1853.32,60.41 1853.336,324.78 1853.38,97.0 1853.419,373.51 1853.44,91.78 1853.462,66.49 1853.467,90.81 1853.472,41.1 1853.485,42.78 1853.517,131.48 1853.608,315.35 1853.689,320.86 1853.785,243.04 1853.883,207.18 1853.901,367.4 1853.926,420.84 1853.957,96.32 1854.086,86.06 1854.271,689.35 1854.476,173.53 1854.626,112.74 1854.635,193.49 1854.637,41.38 1854.638,29.56 1854.67,280.49 1854.792,166.94 1854.89,79.19 1854.906,165.56 1854.922,393.89 1854.935,372.3 1854.951,362.55 1854.969,407.56 1855.064,181.47 1855.505,79.8 1855.886,318.32 1855.916,104.37 1855.918,79.27 1855.945,165.21 1855.975,163.71 1855.984,135.83 1855.992,55.25 1856.031,32.96 1856.067,629.12 1856.073,646.7 1856.078,613.2 1856.087,583.38 1856.103,561.66 1856.113,682.76 1856.117,803.49 1856.241,507.32 1857.277,156.47 1858.215,362.01 1858.242,331.71 1858.267,621.22 1858.289,962.76 1858.29,940.89 1858.293,957.8 1858.299,921.41 1858.305,961.33 1858.313,900.58 1858.32,905.25 1858.323,893.68 1858.337,964.21 1858.423,778.3 1859.129,433.3 1860.366,916.71 1861.007,184.26 1861.056,95.22 1861.096,49.95 1861.122,322.47 1861.133,741.47 1861.152,914.91 1861.164,922.27 1861.166,934.25 1861.167,969.44 1861.167,948.42 1861.17,966.24 1861.177,895.56 1861.19,872.62 1861.291,922.64 1861.421,85.12 1861.535,70.26 1861.646,253.81 1861.685,230.68 1861.709,132.17 1861.734,870.18 1861.747,958.77 1861.756,972.51 1861.761,861.11 1861.828,862.66 1861.893,80.71 1861.902,72.61 1861.927,909.75 1861.967,144.95 1862.044,87.51 1862.102,75.17 1862.469,59.11 1862.868,119.12 1862.962,480.66 1863.034,859.29 1863.05,935.55 1863.051,924.63 1863.052,894.66 1863.054,908.69 1863.055,968.09 1863.06,940.92 1863.068,888.31 1863.075,931.24 1863.096,893.08 1863.121,895.14 1863.135,875.6 1864.103,707.03 1865.173,219.93 1865.58,80.57 1865.886,104.23 1865.949,76.98 1866.012,270.2 1866.025,162.21 1866.036,106.16 1866.068,170.72 1866.138,245.78 1866.194,177.45 1866.257,107.84 1866.303,281.32 1866.305,130.69 1866.309,89.02 1866.319,113.78 1866.352,151.36 1866.398,901.05 1866.423,104.28 1866.458,34.98 1866.501,502.54 1866.522,804.57 1866.532,204.08 1866.534,475.33 1866.536,544.67 1866.626,641.73 1866.807,84.43 1866.933,120.77 1866.991,77.19 1867.026,42.11 1867.051,46.74 1867.072,74.57 1867.155,53.01 1867.25,349.32 1867.313,105.64 1867.374,61.7 1867.399,89.4 1867.421,120.08 1867.447,162.74 1867.481,278.87 1867.518,114.85 1867.588,714.18 1867.808,68.66 1868.016,150.77 1868.064,89.52 1868.104,225.06 1868.143,174.31 1868.148,167.85 1868.152,137.1 1868.164,111.35 1868.214,214.51 1868.263,127.56 1868.291,214.12 1868.315,61.16 1868.347,63.23 1868.404,361.96 1868.435,68.4 1868.438,161.8 1868.443,95.69 1868.451,116.22 1868.534,357.19 1868.633,111.09 1868.655,103.73 1868.658,89.34 1868.665,113.56 1868.669,178.02 1868.764,72.63 1868.992,228.24 1869.395,85.49 1869.677,716.62 1869.717,199.22 1869.745,643.62 1869.762,920.74 1869.783,876.55 1869.793,971.43 1869.796,962.95 1869.802,932.06 1869.808,964.12 1869.817,886.89 1869.833,852.11 1869.889,850.64 1869.951,70.36 1870.778,618.4 1871.662,100.76 1871.762,234.36 1871.79,66.17 1871.794,73.98 1871.797,39.33 1871.844,107.84 1873.024,783.67 1874.183,169.56 1874.281,132.51 1874.797,117.94 1875.935,87.3 1876.677,144.74 1876.757,178.83 1876.79,120.13 1876.796,77.6 1876.813,119.25 1876.891,866.12 1876.968,142.83 1877.035,95.04 1877.094,396.26 1877.104,250.8 1877.116,447.64 1877.13,642.64 1877.154,129.83 1877.167,223.86 1877.174,213.52 1877.838,232.18 1878.545,119.15 1878.598,163.05 1878.613,809.47 1878.621,846.89 1878.625,962.86 1878.628,881.09 1878.632,950.05 1878.638,964.02 1878.641,906.66 1878.643,953.87 1878.651,909.97 1878.683,941.96 1878.996,331.56 1879.285,68.0 1879.29,31.84 1879.295,64.72 1879.311,226.88 1879.411,168.46 1879.651,84.2 1879.825,143.9 1879.88,245.96 1879.917,104.42 1879.931,668.66 1879.943,493.96 1879.964,533.4 1880.037,198.34 1880.114,32.9 1880.185,116.42 1880.237,840.35 1880.25,887.65 1880.261,908.8 1880.264,883.51 1880.318,916.09 1880.377,98.26 1880.399,153.83 1880.412,188.87" fill="none" stroke="blue" /></svg>