<?xml version="1.0" encoding="utf-8" ?>
<svg baseProfile="full" height="100%" version="1.1" width="100%" xmlns="http://www.w3.org/2000/svg" xmlns:ev="http://www.w3.org/2001/xml-events" xmlns:xlink="http://www.w3.org/1999/xlink"><defs /><rect fill="dodgerblue" height="70" width="1692.69" x="20" y="20" /><rect fill="slateblue" height="70" width="4.08" x="20.0" y="20" /><rect fill="slateblue" height="70" width="0.84" x="142.58" y="20" /><rect fill="slateblue" height="70" width="1.21" x="265.93" y="20" /><rect fill="slateblue" height="70" width="0.6" x="311.43" y="20" /><rect fill="slateblue" height="70" width="0.8" x="326.76" y="20" /><rect fill="slateblue" height="70" width="1.39" x="346.04" y="20" /><rect fill="slateblue" height="70" width="1.42" x="426.23" y="20" /><rect fill="slateblue" height="70" width="1.79" x="434.04" y="20" /><rect fill="slateblue" height="70" width="2.05" x="485.47" y="20" /><rect fill="slateblue" height="70" width="0.48" x="502.08" y="20" /><rect fill="slateblue" height="70" width="0.81" x="528.68" y="20" /><rect fill="slateblue" height="70" width="3.41" x="545.83" y="20" /><rect fill="slateblue" height="70" width="1.24" x="572.43" y="20" /><rect fill="slateblue" height="70" width="1.19" x="576.24" y="20" /><rect fill="slateblue" height="70" width="1.12" x="586.05" y="20" /><rect fill="slateblue" height="70" width="1.38" x="589.57" y="20" /><rect fill="slateblue" height="70" width="1.59" x="598.81" y="20" /><rect fill="slateblue" height="70" width="0.98" x="601.33" y="20" /><rect fill="slateblue" height="70" width="1.4" x="617.2" y="20" /><rect fill="slateblue" height="70" width="0.64" x="632.23" y="20" /><rect fill="slateblue" height="70" width="1.01" x="635.45" y="20" /><rect fill="slateblue" height="70" width="1.47" x="678.29" y="20" /><rect fill="slateblue" height="70" width="1.21" x="700.85" y="20" /><rect fill="slateblue" height="70" width="0.77" x="724.71" y="20" /><rect fill="slateblue" height="70" width="1.52" x="741.16" y="20" /><rect fill="slateblue" height="70" width="2.03" x="753.24" y="20" /><rect fill="slateblue" height="70" width="1.27" x="816.12" y="20" /><rect fill="slateblue" height="70" width="1.28" x="843.91" y="20" /><rect fill="slateblue" height="70" width="1.11" x="876.01" y="20" /><rect fill="slateblue" height="70" width="0.78" x="996.39" y="20" /><rect fill="slateblue" height="70" width="2.24" x="1002.27" y="20" /><rect fill="slateblue" height="70" width="0.79" x="1020.4" y="20" /><rect fill="slateblue" height="70" width="1.62" x="1022.65" y="20" /><rect fill="slateblue" height="70" width="0.56" x="1046.51" y="20" /><rect fill="slateblue" height="70" width="1.49" x="1056.17" y="20" /><rect fill="slateblue" height="70" width="1.37" x="1078.34" y="20" /><rect fill="slateblue" height="70" width="1.17" x="1096.73" y="20" /><rect fill="slateblue" height="70" width="1.23" x="1139.16" y="20" /><rect fill="slateblue" height="70" width="2.36" x="1149.7" y="20" /><rect fill="slateblue" height="70" width="1.43" x="1162.7" y="20" /><rect fill="slateblue" height="70" width="2.08" x="1270.51" y="20" /><rect fill="slateblue" height="70" width="1.42" x="1313.26" y="20" /><rect fill="slateblue" height="70" width="1.8" x="1338.15" y="20" /><rect fill="slateblue" height="70" width="1.77" x="1341.26" y="20" /><rect fill="slateblue" height="70" width="0.77" x="1346.0" y="20" /><rect fill="slateblue" height="70" width="1.39" x="1360.92" y="20" /><rect fill="slateblue" height="70" width="1.23" x="1371.46" y="20" /><rect fill="slateblue" height="70" width="2.14" x="1392.48" y="20" /><rect fill="slateblue" height="70" width="1.46" x="1398.83" y="20" /><rect fill="slateblue" height="70" width="1.78" x="1412.77" y="20" /><rect fill="slateblue" height="70" width="1.02" x="1424.29" y="20" /><rect fill="slateblue" height="70" width="1.88" x="1450.84" y="20" /><rect fill="slateblue" height="70" width="1.27" x="1475.01" y="20" /><rect fill="slateblue" height="70" width="1.01" x="1497.06" y="20" /><rect fill="slateblue" height="70" width="1.55" x="1507.25" y="20" /><rect fill="slateblue" height="70" width="1.4" x="1513.11" y="20" /><rect fill="slateblue" height="70" width="0.83" x="1529.8" y="20" /><rect fill="slateblue" height="70" width="1.31" x="1559.34" y="20" /><rect fill="slateblue" height="70" width="1.3" x="1561.99" y="20" /><rect fill="slateblue" height="70" width="1.56" x="1572.06" y="20" /><rect fill="slateblue" height="70" width="1.91" x="1604.82" y="20" /><rect fill="slateblue" height="70" width="1.15" x="1626.03" y="20" /><rect fill="slateblue" height="70" width="2.14" x="1628.84" y="20" /><rect fill="slateblue" height="70" width="1.06" x="1634.68" y="20" /><rect fill="slateblue" height="70" width="1.63" x="1657.66" y="20" /><rect fill="slateblue" height="70" width="1.61" x="1661.37" y="20" /><rect fill="slateblue" height="70" width="41.04" x="1671.65" y="20" /><text fill="dodgerblue" x="40" y="110">Intron</text><text fill="slateblue" x="40" y="130">Exon</text></svg>